<svg width="59" height="84" viewBox="0 0 59 84" fill="none" xmlns="http://www.w3.org/2000/svg">
<path fill-rule="evenodd" clip-rule="evenodd" d="M46.95 42.7669C46.9845 42.7359 47.0191 42.705 47.0537 42.6739C47.0229 42.4869 47.0128 42.2924 46.9526 42.1158C46.9221 42.0259 46.7952 41.9031 46.7238 41.9108C46.6107 41.9231 46.4702 42.0094 46.412 42.1083C46.3664 42.1861 46.3869 42.3756 46.45 42.4356C46.5931 42.5721 46.7806 42.6595 46.95 42.7669ZM38.0674 34.506C38.0845 34.5086 38.1013 34.5112 38.1182 34.5138C38.1344 34.364 38.1651 34.2141 38.1644 34.0644C38.1597 33.1673 38.1485 32.2702 38.1378 31.3731C38.1355 31.1929 38.1365 31.0115 38.117 30.8329C38.0258 29.9947 37.9271 29.1575 37.8327 28.3197C37.7595 27.6698 37.1524 26.9821 36.4967 26.81C36.5237 27.1279 36.5476 27.446 36.5795 27.7633C36.5902 27.8694 36.5881 28.0029 36.6482 28.0736C37.0346 28.5292 37.0178 29.1041 37.1187 29.6454C37.1946 30.0518 37.2094 30.493 37.3821 30.8521C37.6505 31.4098 37.8393 31.9631 37.8697 32.5875C37.8852 32.9044 38.0256 33.213 38.0597 33.531C38.0943 33.8524 38.0674 34.1807 38.0674 34.506ZM23.5278 30.4861C22.4324 32.7493 21.3634 34.9324 21.3583 37.5202H22.369C22.4798 36.9725 22.6329 36.4709 22.6724 35.9602C22.7301 35.211 22.8297 34.4792 23.0275 33.7535C23.1528 33.2932 23.1761 32.8043 23.2582 32.3306C23.2947 32.1201 23.3567 31.9135 23.419 31.7087C23.5308 31.3403 23.6954 30.9799 23.5278 30.4861ZM22.8854 37.6097C23.1242 37.6374 23.3012 37.6339 23.4648 37.6805C25.1097 38.1494 26.7821 37.9482 28.4321 37.8098C29.8757 37.6888 31.3025 37.3551 32.7361 37.1126C34.0845 36.8844 35.431 36.649 36.7425 36.2386C37.4091 36.0301 37.4415 35.9971 37.4353 35.2982C37.4337 35.1189 37.4611 34.9392 37.472 34.7596C37.4828 34.5801 37.508 34.3989 37.4944 34.221C37.4451 33.5769 37.4022 32.931 37.3158 32.2916C37.2684 31.9404 37.1431 31.5996 37.0452 31.2565C36.9581 30.9507 36.8239 30.6541 36.7742 30.3426C36.6608 29.6327 36.6124 28.9103 36.2378 28.2712C36.1875 28.1852 36.1939 28.0649 36.1707 27.9613C36.0925 27.613 36.0367 27.2568 35.927 26.9191C35.8107 26.5611 35.6215 26.4597 35.2734 26.5929C34.7462 26.7942 34.2925 27.1223 34.1895 27.7371C34.0808 28.3871 33.9712 29.049 34.3453 29.6696C34.4455 29.8357 34.4847 30.0393 34.5624 30.221C34.9375 31.0984 34.9153 31.9894 34.6672 32.8929C34.3532 34.0363 33.6143 34.8758 32.7559 35.5986C32.4482 35.8576 32.0083 35.9655 31.6147 36.0994C30.9129 36.3382 30.1706 36.3001 29.4456 36.3725C29.1919 36.3979 28.9157 36.3639 28.6717 36.2855C27.5335 35.9201 26.743 34.7868 26.9308 33.3781C27.0251 32.6718 27.3266 32.0396 27.6255 31.4082C28.0064 30.6034 28.3442 29.7888 28.3219 28.8655C28.3047 28.1505 28.3063 27.435 28.2969 26.7197C28.2959 26.6482 28.2841 26.5747 28.2646 26.5059C28.0178 25.6297 27.6283 25.2534 26.7961 25.6704C26.5661 25.7855 26.3317 25.9501 26.1769 26.1541C25.7351 26.7358 25.3263 27.3444 24.9174 27.9517C24.4542 28.6397 24.3218 29.4373 24.2209 30.2457C24.1744 30.617 24.1596 31.013 24.0179 31.3475C23.6285 32.2675 23.5787 33.2614 23.3609 34.2169C23.2109 34.8745 23.1479 35.5534 23.0545 36.224C22.9913 36.6786 22.9427 37.1356 22.8854 37.6097ZM14.2374 47.1852C14.2045 47.1969 14.1718 47.2089 14.1389 47.2208C14.0888 47.4451 14.0379 47.6691 13.9892 47.8938C13.6616 49.4006 13.3322 50.9069 13.0089 52.4148C12.9337 52.7653 12.8715 53.1196 12.8175 53.4743C12.7686 53.7944 12.771 54.1259 12.6952 54.438C12.4297 55.5319 12.139 56.6194 11.8601 57.7101C11.6912 58.3709 11.5131 59.0298 11.3644 59.6955C11.2433 60.2377 11.148 60.7863 11.062 61.3356C10.9313 62.1696 10.8902 63.0259 10.682 63.8379C10.3156 65.2677 10.0821 66.7152 9.90287 68.1772C9.85269 68.586 9.77522 68.9926 9.68556 69.3943C9.56448 69.9365 9.40333 70.4694 9.29102 71.0132C9.22987 71.3091 9.23096 71.6191 9.21001 71.9231C9.18151 72.3359 9.22451 72.7675 9.12109 73.1586C8.83142 74.2535 8.15975 75.1074 7.33424 75.832C7.17028 75.9759 6.93384 76.0577 6.71751 76.1084C6.3606 76.192 5.99334 76.2316 5.62924 76.2816C4.65695 76.415 3.71425 76.6469 2.82283 77.0864C2.50917 77.2411 2.2826 77.44 2.14617 77.8276C2.67666 77.9312 3.15452 77.8647 3.63251 77.7866C3.96128 77.7331 4.29127 77.687 4.61882 77.6271C5.2643 77.5087 5.71561 78.3896 5.53764 78.8284C5.3777 79.2225 5.17793 79.636 4.80434 79.851C4.23938 80.1766 3.70012 80.5456 3.13942 80.8697C2.56435 81.2018 2.07333 81.6048 1.63188 82.0906C1.5778 82.15 1.55197 82.2364 1.49143 82.3516C1.62335 82.3963 1.7152 82.4423 1.8118 82.4578C2.96864 82.6441 4.12414 82.8554 5.30401 82.7466C5.78504 82.7022 6.26766 82.668 6.74589 82.6008C7.83805 82.4472 8.92497 82.2503 10.0196 82.1205C10.9054 82.0154 11.7905 81.9407 12.6414 81.6366C13.4575 81.3449 14.0685 80.8319 14.4107 80.0042C14.6639 79.3921 14.9182 78.7806 15.1718 78.1687C15.4963 77.3857 15.6883 76.5788 15.7063 75.7185C15.7175 75.1822 15.7759 74.6318 15.9159 74.1173C16.1138 73.3903 16.2011 72.6494 16.3199 71.9115C16.3684 71.611 16.4072 71.3086 16.4601 71.009C16.6191 70.1096 16.879 69.2331 16.9738 68.3174C17.0626 67.4602 17.2263 66.6114 17.3561 65.7588C17.4588 65.0838 17.5495 64.4069 17.6647 63.7342C17.7978 62.9577 17.9458 62.1837 18.0992 61.4111C18.2005 60.9005 18.3274 60.3954 18.4338 59.886C18.4964 59.5866 18.5381 59.283 18.5955 58.9824C18.8248 57.7823 19.0526 56.5818 19.2889 55.383C19.5177 54.2222 19.76 53.0642 19.9892 51.9035C20.1546 51.0664 20.3082 50.2269 20.4743 49.3515C20.006 49.3095 19.5738 49.2861 19.1458 49.2289C18.2451 49.1086 17.3456 48.9785 16.448 48.8359C16.0682 48.7756 15.7225 48.6488 15.3882 48.4075C14.9226 48.0717 14.5246 47.6934 14.2374 47.1852ZM57.2501 73.1833C56.8902 72.6247 56.5078 72.4829 55.7371 72.4304C54.5641 72.3503 53.4252 72.6929 52.2456 72.6357C51.2803 72.5889 50.5783 72.2108 50.1132 71.4149C49.6632 70.6447 49.4201 69.7895 49.398 68.8631C49.3742 67.8637 49.2508 66.8671 49.1928 65.8679C49.1302 64.7883 49.0894 63.7074 49.0461 62.6268C49.0026 61.5464 48.968 60.4654 48.9294 59.3846C48.8644 57.568 48.811 55.7508 48.7287 53.935C48.6904 53.0906 48.6613 52.2363 48.5121 51.4085C48.2403 49.9008 48.212 48.3681 47.9834 46.8586C47.902 46.3203 47.777 45.7891 47.6597 45.193C47.3347 45.4514 47.0963 45.6805 46.8223 45.848C46.5408 46.0201 46.2135 46.1116 45.9262 46.2751C45.5319 46.4992 45.1167 46.5969 44.6724 46.6291C44.4714 46.6435 44.2737 46.7291 44.0789 46.7955C43.9808 46.8289 43.897 46.9172 43.7986 46.9368C43.3376 47.0288 42.8745 47.1114 42.4104 47.1864C41.675 47.3053 40.9381 47.4152 40.21 47.5277C40.1931 47.7355 40.161 47.8977 40.1701 48.0573C40.2601 49.617 40.1862 51.1865 40.4936 52.7343C40.5889 53.2135 40.5107 53.7266 40.5408 54.2223C40.5789 54.8503 40.6531 55.4758 40.7 56.1032C40.7727 57.0727 40.8331 58.0428 40.9032 59.0125C40.956 59.7433 41.0233 60.4732 41.0709 61.2044C41.14 62.261 41.181 63.3195 41.2631 64.3747C41.3761 65.8276 41.5201 67.2778 41.6433 68.7299C41.692 69.3039 41.7027 69.8818 41.7642 70.4541C41.8061 70.8448 41.9384 71.2259 41.9744 71.6167C42.1051 73.0434 42.2012 74.4731 42.3329 75.8995C42.4106 76.7411 42.5078 77.5823 42.6392 78.4166C42.7615 79.1926 43.2104 79.8387 43.5318 80.5343C43.5663 80.6088 43.6411 80.6786 43.7138 80.7166C44.437 81.095 45.2016 81.3486 46.0052 81.4593C46.5425 81.5334 47.084 81.6038 47.6248 81.6153C48.4445 81.6328 49.2659 81.6117 50.0854 81.5796C50.5742 81.5606 51.0622 81.4393 51.5486 81.451C53.1352 81.489 54.7169 81.4163 56.2901 81.2283C56.7776 81.1701 57.2842 81.075 57.7064 80.7318C58.0934 80.4173 58.2271 80.0963 57.9626 79.6818C57.7229 79.3058 57.3941 78.9997 56.9097 78.9648C56.4435 78.9315 55.9808 78.9117 55.5105 78.9188C54.5585 78.9329 53.5034 77.6513 53.5661 76.6579C53.5706 76.586 53.5821 76.5136 53.5996 76.444C53.8802 75.3189 54.6083 74.6576 55.6858 74.421C56.4088 74.2622 56.9293 73.8909 57.2501 73.1833ZM23.2548 40.2561C23.0172 40.2561 22.794 40.2328 22.5777 40.2622C22.3182 40.2973 22.0655 40.3814 21.8083 40.4373C21.2982 40.5481 20.9808 40.4035 20.7354 39.9085C20.636 39.7083 20.5446 39.4734 20.5477 39.2556C20.5571 38.5752 20.5868 37.8925 20.6585 37.2161C20.7341 36.506 20.8555 35.8002 20.9797 35.0968C21.045 34.7272 21.1603 34.367 21.2514 34.0021C21.418 33.3345 21.7218 32.7284 22.0226 32.1172C22.5417 31.0619 22.9878 29.9662 23.5487 28.9358C24.0433 28.0276 24.6631 27.1921 25.2076 26.3112C25.4653 25.8942 25.7942 25.5667 26.1491 25.2368C26.728 24.6985 27.3661 24.7623 28.0315 24.8914C28.1413 24.9127 28.2434 25.0142 28.3333 25.0968C28.8315 25.5549 28.9417 26.1761 28.9675 26.813C28.996 27.5151 28.9775 28.2191 28.9885 28.922C28.9976 29.5054 28.9251 30.0779 28.7131 30.6162C28.4635 31.2492 28.1539 31.8572 27.9031 32.4898C27.465 33.5945 27.5197 34.4524 28.2493 35.1102C28.5738 35.4027 28.912 35.5851 29.3241 35.5694C29.9017 35.5473 30.4835 35.5108 31.0522 35.4116C31.4412 35.3437 31.816 35.1716 32.1881 35.0226C32.702 34.8168 33.0061 34.3572 33.3614 33.959C33.9451 33.305 34.1438 32.5025 34.2357 31.6529C34.3098 30.9689 33.9518 30.3913 33.7374 29.8024C33.4793 29.0934 33.4179 28.4334 33.553 27.7034C33.7339 26.7271 34.3713 26.2371 35.2034 25.9383C35.4446 25.8515 35.7254 25.8097 35.9773 25.8407C36.6728 25.926 37.3115 26.2021 37.7914 26.7316C38.0455 27.0118 38.2841 27.3727 38.3692 27.7367C38.6735 29.0376 38.7431 30.369 38.7143 31.7063C38.7003 32.3537 38.6978 33.0019 38.7123 33.649C38.7282 34.3531 38.6744 35.0205 38.4011 35.6979C38.1348 36.3582 37.7295 36.7862 37.0962 36.9589C36.3034 37.1752 35.4917 37.3189 34.6879 37.4925C34.5011 37.5328 34.3126 37.5656 34.1255 37.6051C33.5251 37.7316 32.9296 37.8948 32.3238 37.9794C31.2942 38.1232 30.2509 38.1738 29.2281 38.3526C28.7489 38.4364 28.2748 38.5306 27.7886 38.5624C26.7077 38.6331 25.6337 38.7631 24.5448 38.5619C23.7025 38.4062 22.8404 38.3596 21.9857 38.2794C21.8153 38.2634 21.6261 38.2809 21.4693 38.3448C21.3349 38.3994 21.1666 38.5238 21.1336 38.6505C21.0623 38.9236 21.0538 39.2072 21.2468 39.4724C21.4443 39.7436 21.6972 39.7273 21.9573 39.686C22.1983 39.6477 22.4311 39.5567 22.6713 39.5097C23.452 39.3569 23.9222 39.8019 23.8452 40.6101C23.8384 40.682 23.8468 40.7562 23.8337 40.8264C23.764 41.1994 23.4559 41.5182 23.1429 41.5416C22.8483 41.5637 22.5504 41.6179 22.2595 41.5916C21.7363 41.5443 21.4016 41.7709 21.1743 42.2336C20.9397 42.7113 21.0794 43.1114 21.5737 43.2447C21.8759 43.3263 22.1932 43.3725 22.5056 43.3844C23.0853 43.4064 23.6664 43.3948 24.2468 43.39C24.3846 43.389 24.5229 43.365 24.6595 43.3423C25.434 43.2144 26.2058 43.0651 26.9832 42.96C27.5561 42.8825 28.1365 42.8629 28.7132 42.8147C29.6134 42.7391 30.4922 42.4609 31.4187 42.6109C31.8218 42.6763 32.2528 42.5578 32.6712 42.5255C33.8423 42.435 35.0229 42.4127 36.1822 42.2399C37.6951 42.0141 39.2175 41.999 40.7337 41.8674C41.5121 41.8 42.2981 41.758 43.0282 41.4021C43.7966 41.0275 44.4399 40.517 44.807 39.7152C45.0068 39.279 45.1853 38.8211 45.29 38.3534C45.4311 37.7224 45.5048 37.0763 45.3428 36.4247C45.1001 35.4489 44.8504 34.4737 44.6528 33.4878C44.3707 32.0795 44.1272 30.6628 43.8782 29.2477C43.7318 28.4148 43.6242 27.5745 43.4677 26.7438C43.2218 25.4394 42.9399 24.1422 42.6908 22.8384C42.4412 21.5318 42.2283 20.2177 41.971 18.9127C41.7493 17.7887 41.4924 16.6721 41.2429 15.5541C40.9809 14.3797 40.7055 13.2083 40.4437 12.0337C40.3496 11.612 40.29 11.1822 40.194 10.7609C39.9717 9.78587 39.7089 8.8197 39.5158 7.83888C39.3632 7.06381 39.1041 6.33217 38.7967 5.61742C38.3881 4.66639 37.8309 3.80109 37.224 2.9732C35.9477 1.23259 34.2336 0.589429 32.1745 0.978903C31.3381 1.13722 30.5254 1.43233 29.8435 2.01254C29.3324 2.44731 28.8048 2.86307 28.27 3.26706C27.8459 3.58758 27.559 4.01385 27.3353 4.48479C26.952 5.2919 26.6045 6.11703 26.2223 6.92476C25.5786 8.28517 24.9188 9.63744 24.2672 10.994C24.0887 11.3658 23.9071 11.7364 23.7428 12.1148C23.5438 12.5728 23.325 13.0266 23.1794 13.503C22.8387 14.6184 22.5739 15.7591 22.2065 16.8645C21.9414 17.6623 21.5748 18.4263 21.228 19.1932C20.9159 19.8832 20.6674 20.5838 20.5457 21.3413C20.4261 22.0853 20.2611 22.8256 20.0591 23.551C19.7373 24.7075 19.3685 25.8502 19.0191 26.9987C18.9512 27.2218 18.8965 27.451 18.8085 27.6656C18.5251 28.3563 18.2014 29.0309 17.944 29.7314C17.4509 31.0733 17.0102 32.4356 16.513 33.7758C16.2697 34.4319 16.2398 35.1371 15.9322 35.786C15.4124 36.883 15.3395 38.1438 14.8425 39.2591C14.8221 39.3052 14.8423 39.3684 14.8301 39.4203C14.6654 40.1197 14.4994 40.8189 14.3315 41.5176C14.13 42.3561 13.8969 43.18 14.0093 44.0718C14.1281 45.0139 14.1727 45.9493 14.7012 46.7943C15.1173 47.4597 15.6582 47.9026 16.3868 48.0586C17.1907 48.2305 18.0097 48.3304 18.8247 48.4437C19.3107 48.5111 19.8007 48.5714 20.2902 48.5843C20.7535 48.5966 21.2253 48.4397 21.672 48.6902C21.6992 48.7055 21.7413 48.6922 21.7765 48.6923C22.704 48.697 23.6317 48.7164 24.5587 48.7004C25.0837 48.6913 25.61 48.6439 26.1316 48.5793C27.4675 48.4139 28.8 48.2194 30.1362 48.0561C30.8147 47.9731 31.5018 47.9615 32.1782 47.8656C33.1988 47.721 34.2093 47.496 35.2317 47.3702C36.2392 47.2463 37.2358 47.0018 38.2609 47.0396C38.3642 47.0435 38.4688 47.0143 38.5727 46.9999C39.4048 46.8839 40.2367 46.7661 41.0689 46.6524C41.7633 46.5575 42.4642 46.4999 43.1511 46.366C43.8034 46.2387 44.4461 46.0511 45.0838 45.8581C45.6664 45.6819 46.2284 45.463 46.7097 45.046C47.509 44.3537 47.4206 43.6789 46.4482 43.2729C45.84 43.0191 45.719 42.8373 45.7371 42.1819C45.7436 41.9395 45.8296 41.7599 46.032 41.5892C46.3559 41.3159 46.8487 41.2519 46.9849 40.728C47.1675 40.8413 47.3106 40.9301 47.4749 41.0321C47.7222 40.8658 47.9537 40.706 48.189 40.5527C48.6498 40.2524 48.8548 39.8067 48.9263 39.2656C48.9591 39.0184 48.8966 38.8292 48.7096 38.6989C48.5382 38.5794 48.3499 38.4755 48.1557 38.4018C47.4209 38.1227 46.7047 38.336 45.9951 38.531C45.9061 38.5554 45.8293 38.6984 45.784 38.8034C45.5788 39.2774 45.4174 39.7739 45.1828 40.2312C44.897 40.7881 44.5468 41.3373 43.9883 41.6226C43.4173 41.9145 42.7977 42.1188 42.1827 42.3024C41.8572 42.3996 41.483 42.3202 41.154 42.4101C40.5373 42.5785 39.9165 42.5885 39.2879 42.6077C38.6117 42.6283 37.9364 42.6989 37.2619 42.7618C36.0989 42.8699 34.9345 42.9691 33.7752 43.1113C33.1 43.194 32.4026 43.086 31.7467 43.3571C31.6413 43.4005 31.5032 43.364 31.3804 43.3581C31.0144 43.3406 30.6458 43.2815 30.2833 43.3088C29.6016 43.36 28.9238 43.4671 28.2432 43.5378C27.7911 43.5848 27.3361 43.6039 26.8832 43.6446C25.6462 43.7556 24.4502 44.214 23.1814 44.0772C22.6643 44.0213 22.135 44.082 21.6183 44.0239C20.7718 43.9287 20.4525 43.5012 20.5206 42.6501C20.5292 42.5421 20.5355 42.4332 20.5541 42.3267C20.7001 41.4907 21.3399 40.9355 22.1586 40.905C22.4188 40.8952 22.6789 40.838 22.9353 40.7841C23.1443 40.7402 23.2809 40.6136 23.2548 40.2561ZM21.2035 49.4118C20.889 50.7761 20.5615 52.1165 20.2743 53.466C19.9722 54.8856 19.7014 56.3124 19.4315 57.739C19.3014 58.4266 19.2172 59.1233 19.0892 59.8113C18.9843 60.3739 18.8836 60.9428 18.7118 61.4858C18.4778 62.2258 18.3993 62.9867 18.2887 63.7478C18.1492 64.7077 17.9504 65.6582 17.7946 66.6158C17.6453 67.5345 17.5293 68.4589 17.377 69.377C17.2748 69.9941 17.1272 70.6034 17.0141 71.2189C16.8853 71.9212 16.8039 72.6342 16.646 73.3292C16.28 74.9419 16.3681 76.6395 15.7757 78.2074C15.529 78.8607 15.267 79.508 15.0102 80.1573C14.9454 80.3212 14.8887 80.4909 14.8035 80.6436C14.3517 81.4551 13.6954 82.0264 12.8269 82.3046C11.6315 82.6877 10.384 82.7878 9.15073 82.9537C8.04444 83.1025 6.93133 83.1973 5.82431 83.341C5.00123 83.4477 4.18911 83.4375 3.36956 83.297C2.732 83.1877 2.08384 83.1449 1.44105 83.0669C1.02786 83.0166 0.776686 82.6658 0.932239 82.2712C1.06051 81.9461 1.23823 81.6035 1.4866 81.3751C1.87384 81.0191 2.33965 80.753 2.77208 80.449C2.94505 80.3275 3.11376 80.1986 3.29234 80.0863C3.63061 79.8738 3.96717 79.6559 4.31835 79.4679C4.70084 79.2634 4.93277 78.9603 5.01438 78.5035C4.76759 78.2652 4.44906 78.2871 4.1483 78.319C3.57823 78.3795 3.01363 78.5004 2.44307 78.5477C1.94011 78.5892 1.50719 78.198 1.47308 77.6934C1.46358 77.5535 1.55494 77.3754 1.65336 77.265C1.86568 77.027 2.10942 76.818 2.34696 76.6048C2.42321 76.5364 2.51396 76.4712 2.60909 76.4409C3.1732 76.2613 3.73646 76.0757 4.30788 75.9235C5.10148 75.7124 5.90641 75.5457 6.69672 75.323C6.92146 75.2597 7.14974 75.1049 7.31138 74.9289C7.83712 74.3563 8.38649 73.7898 8.53814 72.9664C8.54789 72.9135 8.57371 72.8601 8.57079 72.8083C8.50014 71.5862 8.85985 70.4276 9.06071 69.245C9.24428 68.1654 9.38364 67.0775 9.58243 66.001C9.69864 65.3718 9.89963 64.7594 10.0492 64.1363C10.1077 63.8926 10.1251 63.6389 10.1693 63.3915C10.3274 62.5075 10.5092 61.6276 10.6427 60.7399C10.7446 60.0619 10.9274 59.4131 11.1075 58.7548C11.4241 57.5984 11.6219 56.408 11.8806 55.2344C12.0159 54.6209 12.1904 54.0165 12.32 53.402C12.6415 51.8769 12.9533 50.3495 13.257 48.8204C13.4104 48.0482 13.5521 47.2729 13.6679 46.4939C13.7034 46.2543 13.6388 45.9979 13.6141 45.7499C13.5342 44.9467 13.3787 44.1424 13.3931 43.3413C13.4044 42.7092 13.6141 42.0788 13.7529 41.4517C13.888 40.841 14.0551 40.2379 14.1884 39.6269C14.28 39.2074 14.3367 38.78 14.4114 38.3566C14.4269 38.2694 14.4255 38.1539 14.4788 38.1031C14.8974 37.7026 14.8843 37.1289 15.0615 36.6317C15.2299 36.1592 15.4255 35.6972 15.6052 35.2288C15.6625 35.0793 15.7606 34.9196 15.7478 34.773C15.6848 34.0558 15.9297 33.437 16.2702 32.8401C16.3044 32.7804 16.3533 32.7025 16.3409 32.6457C16.1859 31.9391 16.6147 31.4077 16.8604 30.8269C17.1023 30.255 17.4567 29.7241 17.6329 29.1347C17.8386 28.4472 18.1506 27.8162 18.4134 27.1591C18.4568 27.0505 18.4256 26.9128 18.4498 26.7931C18.5055 26.5172 18.5238 26.2235 18.8301 26.0751C18.9094 26.0366 18.9706 25.9129 18.9985 25.8156C19.364 24.5428 19.7365 23.2719 20.0742 21.9912C20.1966 21.5267 20.2106 21.0331 20.31 20.5607C20.5307 19.511 21.0353 18.5728 21.4695 17.6109C21.9596 16.5252 22.2452 15.3779 22.5328 14.2289C22.8228 13.0701 23.3023 11.9936 23.8341 10.9349C24.2915 10.0238 24.7219 9.09816 25.1487 8.17128C25.7707 6.82063 26.3702 5.45898 26.9961 4.11008C27.3218 3.40823 27.8848 2.90649 28.4644 2.43617C28.9715 2.02467 29.4858 1.6148 30.0344 1.26662C30.7479 0.813696 31.5305 0.543868 32.368 0.387177C33.388 0.19632 34.3541 0.442369 35.2996 0.701935C35.8112 0.842481 36.2729 1.25811 36.7006 1.62005C37.485 2.28386 37.9832 3.18746 38.4664 4.08568C38.8028 4.71094 39.1233 5.3526 39.3738 6.01753C39.777 7.08771 40.1366 8.17541 40.2968 9.32318C40.3609 9.78211 40.515 10.2273 40.6175 10.6813C40.8908 11.8898 41.1574 13.0998 41.4281 14.3089C41.5691 14.9388 41.7152 15.5675 41.8554 16.1975C42.0299 16.983 42.213 17.7668 42.3708 18.5559C42.6629 20.0174 42.9289 21.4846 43.2254 22.9453C43.4899 24.2483 43.7944 25.5429 44.0551 26.8468C44.2279 27.7108 44.338 28.5883 44.5086 29.4529C44.6084 29.9603 44.788 30.4505 44.9027 30.9554C45.0738 31.7078 45.2195 32.4665 45.3759 33.2225C45.394 33.3105 45.3868 33.4164 45.433 33.484C45.8777 34.1358 45.7441 34.9868 46.1468 35.651C46.1165 36.3685 46.7003 36.8715 46.7225 37.6086C47.1153 37.6086 47.4576 37.5975 47.7989 37.6111C48.365 37.634 48.8489 37.8883 49.2856 38.2345C49.385 38.3133 49.4618 38.4712 49.4786 38.6022C49.5239 38.9569 49.5333 39.3164 49.5513 39.6745C49.5539 39.7251 49.5391 39.7881 49.5094 39.8271C49.1152 40.3446 48.8614 40.9883 48.2176 41.2803C47.9492 41.4021 47.7078 41.5867 47.4446 41.7486C47.6065 42.5295 47.6183 43.306 47.9924 43.9936C48.0009 44.0091 48.0097 44.0289 48.0075 44.0452C47.9251 44.6715 48.4208 45.091 48.5473 45.6419C48.5752 45.7633 48.5957 45.8873 48.6084 46.0115C48.7359 47.2609 48.8809 48.5089 48.9804 49.7606C49.0514 50.6537 49.2115 51.5326 49.2666 52.4316C49.3976 54.5646 49.4585 56.6972 49.5106 58.8327C49.5484 60.3767 49.6932 61.9177 49.7735 63.4611C49.8014 63.9996 49.7491 64.5429 49.7849 65.0804C49.8519 66.0851 49.9566 67.0872 50.0455 68.0905C50.0597 68.2518 50.095 68.4146 50.0833 68.5741C50.0331 69.2611 50.2241 69.9104 50.4689 70.5198C50.7311 71.1723 51.3679 71.8732 52.2277 71.8356C52.9045 71.8061 53.5749 71.8405 54.2574 71.7335C54.9588 71.6235 55.689 71.6841 56.405 71.7129C56.6147 71.7213 56.8446 71.839 57.0193 71.9709C57.3368 72.2107 57.6367 72.4821 57.911 72.773C58.0815 72.9538 58.0792 73.2076 57.9534 73.4301C57.6374 73.9886 57.3352 74.5702 56.7373 74.8682C56.5066 74.9832 56.2374 75.0155 55.9872 75.091C55.6236 75.2007 55.2612 75.3154 54.92 75.4213C54.8264 75.5771 54.7583 75.7439 54.6452 75.8673C54.4007 76.1342 54.1162 76.4075 54.2262 76.7966C54.3517 77.2403 54.5272 77.6803 54.9618 77.9381C55.2421 78.1044 55.518 78.192 55.8525 78.1881C56.3031 78.1829 56.7545 78.2653 57.2059 78.3068C57.94 78.374 58.628 79.3137 58.7138 80.121C58.7477 80.4389 58.7606 80.8574 58.3415 81.0462C58.2624 81.0819 58.2293 81.2154 58.1628 81.2928C58.0843 81.384 58.0061 81.5095 57.9049 81.5405C57.2642 81.7358 56.6355 81.9656 55.9501 81.9923C54.8932 82.0334 53.8389 82.1397 52.7826 82.2014C52.3113 82.2289 51.8373 82.2051 51.3653 82.2235C51.0517 82.2358 50.7392 82.2831 50.4262 82.3121C50.149 82.3379 49.8717 82.364 49.5941 82.3832C48.5605 82.4544 47.5347 82.3016 46.5057 82.274C45.5173 82.2473 44.6334 81.897 43.7251 81.5819C43.2262 81.4089 42.9567 81.0202 42.7349 80.5953C42.052 79.2863 41.8129 77.8605 41.7296 76.3942C41.6735 75.4079 41.5827 74.4238 41.5086 73.4386C41.4655 72.8645 41.4474 72.2874 41.3775 71.7169C41.2773 70.8996 41.0857 70.0993 41.077 69.264C41.0684 68.4401 40.9511 67.6179 40.8917 66.7941C40.8196 65.788 40.7571 64.7812 40.6922 63.7745C40.5999 62.3411 40.5033 60.908 40.4197 59.474C40.3656 58.5455 40.339 57.6151 40.2843 56.6866C40.2685 56.4206 40.172 56.1597 40.1576 55.8939C40.1149 55.1065 40.1149 54.3163 40.0583 53.5304C40.0213 53.0164 39.9037 52.5091 39.8432 51.9964C39.8016 51.6459 39.7949 51.2911 39.7748 50.9382C39.7203 49.9737 39.6698 49.0089 39.6093 48.0448C39.6019 47.9245 39.5434 47.8076 39.501 47.6637C39.1369 47.6643 38.7877 47.6046 38.4476 47.7749C38.3612 47.818 38.2377 47.8135 38.1384 47.7936C37.6966 47.705 37.265 47.7533 36.8361 47.8688C36.4645 47.969 36.0933 48.0546 35.7048 47.9642C35.6046 47.9409 35.4821 47.9217 35.3933 47.9592C34.5979 48.295 33.7337 48.1851 32.9169 48.374C32.7137 48.421 32.5099 48.4659 32.3061 48.5106C32.1529 48.5444 31.9982 48.6096 31.846 48.6039C31.0551 48.5737 30.2938 48.784 29.5186 48.8783C29.0378 48.9369 28.5475 48.909 28.0633 48.9457C27.8063 48.9651 27.5546 49.0499 27.2981 49.0873C26.3449 49.2266 25.392 49.4529 24.4365 49.4665C23.5021 49.4797 22.5547 49.6694 21.6206 49.4167C21.491 49.3817 21.3445 49.4118 21.2035 49.4118Z" fill="#231F20"/>
</svg>
