<svg width="64" height="95" viewBox="0 0 64 95" fill="none" xmlns="http://www.w3.org/2000/svg">
<path fill-rule="evenodd" clip-rule="evenodd" d="M26.4683 49.5472C26.4373 50.0135 26.3761 50.479 26.3699 50.9454C26.3551 52.046 25.9438 52.7794 24.988 53.0822C23.7511 53.4743 22.4969 53.8096 21.2365 54.0967C20.4437 54.2775 19.6283 54.3674 18.8188 54.4236C16.9557 54.5528 15.0908 54.6682 13.225 54.7259C12.2477 54.756 11.4408 55.2103 10.6533 55.7479C10.4713 55.8722 10.3354 56.1273 10.2433 56.3542C9.93784 57.1072 9.61494 57.858 9.38703 58.641C9.12111 59.5547 8.90986 60.4933 8.7474 61.4362C8.6282 62.1275 8.63887 62.8448 8.56827 63.5477C8.48055 64.4206 8.33116 65.2878 8.27658 66.1626C8.20561 67.2987 8.21353 68.4405 8.16575 69.5788C8.11909 70.693 8.02373 71.8049 7.98838 72.9194C7.93702 74.5388 7.92293 76.1597 7.88639 77.7797C7.87976 78.0733 7.82785 78.3655 7.82003 78.6591C7.79619 79.5588 7.86191 80.471 7.74804 81.3558C7.58116 82.652 7.24225 83.9209 7.06561 85.2163C6.94015 86.1352 6.43932 86.553 5.71261 86.6823C4.98866 86.8109 4.24373 86.8907 3.51343 86.8561C2.78911 86.8216 2.25358 87.1685 1.70968 87.5763C1.90114 88.0779 2.40841 88.5159 2.84738 88.4407C3.62545 88.3074 4.05476 88.8502 4.51039 89.3648C4.57501 89.4379 4.6191 89.5775 4.60962 89.6791C4.49428 90.915 4.41346 91.1333 3.48241 91.4863C3.23352 91.5806 2.97689 91.6594 2.74189 91.7861C2.57695 91.875 2.31765 92.0397 2.3229 92.1588C2.33164 92.3569 2.47818 92.6318 2.63788 92.7227C3.25736 93.0753 3.91439 93.2066 4.62931 93.0977C5.17828 93.0139 5.74676 93.0514 6.30447 93.0824C6.89201 93.115 7.47586 93.2269 8.06331 93.2598C8.43343 93.2806 8.83125 93.1177 9.17514 93.2151C10.2784 93.5274 11.358 93.3155 12.4399 93.1425C12.8019 93.0847 13.1656 92.9429 13.4965 92.7668C14.2781 92.3508 14.2505 91.4379 14.2648 90.7305C14.2998 89.0102 14.131 87.2862 14.0945 85.5624C14.0582 83.85 14.0266 82.1332 14.0981 80.4237C14.1624 78.8869 14.3729 77.358 14.5117 75.8248C14.5634 75.255 14.5985 74.6832 14.634 74.1118C14.6931 73.157 14.7143 72.1977 14.8132 71.2481C14.8796 70.6112 15.0116 69.9735 15.1856 69.3608C15.5883 67.9424 15.9873 66.5187 16.4782 65.1361C16.8461 64.1001 17.4287 63.2306 18.3554 62.6273C18.8253 62.3213 19.2081 62.1976 19.7103 62.3547C20.0253 62.4534 20.3529 62.5385 20.6781 62.5549C21.4797 62.5952 22.2896 62.5265 23.0842 62.6219C24.407 62.7806 25.7211 63.0285 27.0375 63.2483C27.7907 63.374 28.5277 63.4731 29.3086 63.4467C31.2213 63.3818 33.0904 63.0999 34.9448 62.6124C35.6406 62.4296 36.3441 62.2232 37.053 62.1696C38.6628 62.0477 40.2786 62.0257 41.8907 61.9357C42.2946 61.9133 42.7094 61.839 43.092 61.6989C44.2452 61.2764 45.4228 61.3557 46.5991 61.4437C46.9185 61.4676 47.2257 61.6505 47.5445 61.732C48.1603 61.8893 48.6003 62.2947 48.926 62.8705C49.4616 63.8169 49.3058 64.887 49.3085 65.9058C49.3117 67.1246 49.1804 68.3439 49.1037 69.5627C49.0356 70.643 49.0297 71.7349 48.8746 72.8001C48.674 74.1781 48.3618 75.537 48.0804 76.8997C47.767 78.4179 47.427 79.9293 47.1119 81.4469C46.8433 82.741 46.603 84.0423 46.3323 85.3359C46.1565 86.1765 46.2306 86.9993 46.2944 87.8509C46.3759 88.9393 46.9632 89.3905 47.7623 89.5916C48.4402 89.7621 49.1542 89.7747 49.8543 89.818C50.8459 89.8792 51.8394 89.906 52.8321 89.9445C53.5481 89.9723 54.267 90.0514 54.9795 90.007C56.0552 89.9399 57.1265 89.7858 58.1995 89.6671C58.5427 89.6292 58.8897 89.6113 59.2274 89.5409C59.8711 89.4068 60.5145 89.2626 61.1485 89.0822C61.6404 88.9423 62.118 88.7407 62.6021 88.5665C62.5888 88.4715 62.5756 88.3767 62.5623 88.2818C61.8083 88.2656 61.0505 88.1912 60.3014 88.2503C59.5985 88.3057 59.041 88.0681 58.5566 87.5506C58.477 87.4656 58.4169 87.3247 58.4043 87.2026C58.3215 86.3969 58.4898 86.1355 59.1809 85.8427C59.9657 85.5103 60.7408 85.15 61.5202 84.802C61.516 84.7231 61.5119 84.6442 61.5076 84.5654C61.1454 84.5022 60.7849 84.4199 60.4205 84.3808C60.0145 84.3375 59.6054 84.3255 59.1973 84.314C58.1888 84.2856 57.1798 84.274 56.1715 84.2386C55.4856 84.2146 54.7891 84.2329 54.1182 84.102C53.437 83.9692 53.0248 83.412 52.8135 82.6852C52.5197 81.6745 52.8261 80.6861 52.9211 79.6952C52.9826 79.0548 53.1161 78.4091 53.3064 77.7998C53.8178 76.1622 54.0289 74.4638 54.2435 72.7626C54.2886 72.4048 54.3882 72.0531 54.413 71.6945C54.4753 70.7944 54.4899 69.89 54.5591 68.9907C54.6524 67.7786 54.7751 66.5692 54.8927 65.3595C55.0114 64.1363 55.1296 62.9129 55.2658 61.6919C55.3816 60.6541 55.5422 59.622 55.6475 58.5829C55.7635 57.4387 55.8544 56.2907 55.9257 55.1421C55.9616 54.5635 55.9541 53.9782 55.9221 53.3989C55.8908 52.8339 55.805 52.2725 55.7403 51.7099C55.6819 51.2011 55.6413 50.6882 55.5538 50.1853C55.4516 49.5976 55.1821 49.3394 54.6733 49.431C53.9521 49.5606 53.2436 49.776 52.5298 49.9556C52.5153 49.9593 52.504 49.9763 52.4894 49.982C51.9789 50.1821 51.4744 50.4049 50.9555 50.5736C50.5809 50.6953 50.1778 50.7106 49.8035 50.8331C48.5923 51.2295 47.3962 51.6843 46.1782 52.0517C45.6836 52.2009 45.142 52.1483 44.6315 52.2482C43.4974 52.4701 42.3695 52.7318 41.2388 52.9749C40.638 53.1041 40.0027 53.1338 39.4429 53.3763C38.5289 53.7724 37.6569 53.6921 36.7862 53.3347C36.1663 53.0804 36.0223 53.0442 36.0608 52.3573C36.1394 51.6795 36.23 51.5028 36.23 51.1766C36.2722 50.6 36.2986 50.6215 36.3376 50.0445C36.3833 49.8529 36.41 49.5689 36.4521 49.2132C36.5119 48.467 36.6441 47.7227 36.7143 46.9778C36.8175 45.8809 37.3052 44.9888 37.8758 44.0985C38.2696 43.484 38.7651 43.2377 39.355 43.1535C40.5814 42.9783 41.8191 42.8971 43.0446 42.716C44.1377 42.5547 45.2244 42.3309 46.3072 42.0976C47.2876 41.8865 48.2587 41.6234 49.2346 41.3869C49.9168 41.2215 50.678 41.2207 51.2682 40.8695C52.8676 39.9175 54.4291 38.8739 55.9318 37.747C56.4746 37.34 56.8988 36.6458 57.2136 35.9877C57.6384 35.0992 57.9589 34.137 58.2247 33.1732C58.4795 32.2493 58.667 31.2911 58.7749 30.333C58.9012 29.2137 58.8729 28.0741 58.978 26.951C59.1102 25.5389 59.3267 24.1366 59.4735 22.7258C59.5592 21.9031 59.5658 21.0709 59.6338 20.2456C59.6976 19.4732 59.7833 18.7025 59.8818 17.9347C59.9713 17.2383 60.1171 16.55 60.1903 15.8521C60.2686 15.1063 60.2765 14.3518 60.3411 13.6038C60.4403 12.4573 60.5702 11.314 60.6696 10.1676C60.7122 9.67748 60.6901 9.1806 60.7332 8.69063C60.8366 7.51594 60.9989 6.34562 61.0538 5.1688C61.0697 4.82822 60.8145 4.46442 60.6532 4.12901C60.6252 4.0708 60.3839 4.04625 60.3451 4.09909C59.9631 4.61868 59.5502 5.12479 59.2512 5.70097C58.9471 6.2872 58.7805 6.95791 58.518 7.57315C58.2525 8.19538 57.7124 8.23067 57.4289 7.6128C57.2314 7.18226 57.1093 6.67464 57.0804 6.19227C57.0071 4.96657 57.0149 3.73529 56.971 2.50705C56.9468 1.82893 56.6807 1.46411 56.2733 1.47578C55.6912 1.49251 55.0297 2.07671 54.9992 2.589C54.939 3.59999 54.8727 4.61047 54.8065 5.62085C54.7738 6.12198 54.709 6.6223 54.7046 7.12354C54.6913 8.68251 54.6999 10.2417 54.7005 11.8009C54.7006 11.9052 54.7057 12.0096 54.7063 12.1139C54.7139 13.4417 54.7505 14.7703 54.719 16.0971C54.6962 17.063 54.5681 18.0253 54.5151 18.9911C54.461 19.9746 54.4847 20.9652 54.3955 21.944C54.2875 23.1323 54.0928 24.3109 53.9429 25.4949C53.7719 26.8454 53.4789 28.1581 52.9214 29.3824C52.246 30.8655 51.5163 32.2967 49.8485 32.6525C49.8183 32.659 49.7907 32.6794 49.7614 32.692C48.1049 33.4033 46.471 34.191 44.7839 34.8006C43.5529 35.2454 42.2545 35.4685 40.9815 35.7666C39.821 36.0385 38.6359 36.2023 37.488 35.806C37.0322 35.6485 36.5385 35.2614 36.2872 34.8223C35.7358 33.8589 35.7214 32.7031 35.8152 31.6114C35.8779 30.8807 36.256 30.1901 36.4063 29.4599C36.6643 28.2074 36.9301 26.9661 37.4065 25.7843C38.0388 24.2153 38.0879 22.6287 37.4363 21.0385C36.9741 19.9105 35.8757 19.1166 34.8989 19.3261C33.0299 19.7269 31.9273 21.0437 31.5131 22.9918C31.2567 24.1978 31.2363 25.4726 31.1811 26.7205C31.1338 27.7883 31.173 28.8622 31.2037 29.9324C31.2175 30.416 31.2722 30.9045 31.3634 31.378C31.5473 32.3331 31.4825 33.2929 31.1795 34.1682C30.7043 35.5411 29.6245 36.284 28.4194 36.715C27.5327 37.0322 26.5887 37.1577 25.6677 37.3542C24.808 37.5376 23.9469 37.7151 23.0828 37.8709C22.0687 38.0538 21.0539 38.2452 20.0327 38.3625C19.5704 38.4157 19.1365 38.255 18.7547 37.8551C18.1111 37.181 17.9537 36.3739 18.0184 35.4621C18.0476 35.0487 18.0977 34.6371 18.1217 34.2233C18.1766 33.2766 18.1874 32.3251 18.278 31.3828C18.4238 29.8655 18.5983 28.3506 18.8006 26.8412C19.0002 25.3499 19.2444 23.8657 19.4781 22.3801C19.6514 21.2788 19.8681 20.1849 20.0136 19.0794C20.1965 17.6897 20.3106 16.2881 20.7825 14.9652C20.8569 14.7568 20.9536 14.5519 20.9928 14.335C21.3317 12.4533 21.7178 10.5785 21.968 8.68221C22.1038 7.65317 22.0148 6.58609 21.9951 5.53677C21.9923 5.3897 21.8042 5.12803 21.7049 5.12965C21.553 5.13229 21.3407 5.28037 21.2655 5.43332C21.0734 5.8238 20.9061 6.23953 20.7947 6.66591C20.4849 7.85135 20.2091 9.04754 19.9188 10.2391C19.8586 10.4863 19.7857 10.7302 19.7323 10.9791C19.6381 11.4185 19.1665 11.9906 18.8795 11.9998C18.3819 12.0158 17.7358 11.5061 17.6558 10.9688C17.5601 10.3261 17.5295 9.6719 17.4527 9.02522C17.4398 8.9165 17.3362 8.82086 17.2744 8.71923C17.2096 8.81944 17.1065 8.91102 17.0861 9.02117C16.9223 9.9068 16.7599 10.7933 16.6259 11.6849C16.5417 12.2444 16.4854 12.8115 16.4552 13.3776C16.4062 14.2975 16.4905 15.241 16.3344 16.1355C16.0966 17.4989 15.7089 18.8313 15.3716 20.1728C14.9675 21.7805 14.5509 23.3843 14.1366 24.989C13.8263 26.1908 13.5383 27.4008 13.1899 28.5891C12.9 29.5773 12.5354 30.5389 12.2075 31.5138C12.1754 31.6093 12.1633 31.7142 12.1506 31.8161C11.9386 33.5148 11.7548 35.2184 11.5091 36.9112C11.2957 38.3807 10.8799 39.8094 11.0162 41.3384C11.1291 42.6052 11.3741 43.7911 12.133 44.7822C12.2716 44.9633 12.4857 45.0933 12.6873 45.1909C12.8589 45.2738 13.0808 45.2337 13.2493 45.321C14.3834 45.908 15.5282 46.184 16.8218 46.1047C18.5294 45.9999 20.2255 45.9442 21.8836 45.4331C22.3653 45.2846 22.857 45.1746 23.346 45.057C23.8366 44.9388 24.3261 44.7699 24.8225 44.7359C25.695 44.6761 26.1003 44.9565 26.386 45.8843C26.5833 46.5255 26.5345 47.2208 26.5447 47.8948M37.3309 48.1197C37.2048 49.6039 37.0381 49.3963 36.8877 50.8782C36.8132 51.6121 37.1741 52.3316 37.6451 52.3257C38.1266 52.3197 38.6132 52.2585 39.0871 52.1604C40.2369 51.9222 41.381 51.6501 42.5268 51.3885C44.176 51.012 45.8369 50.6867 47.4703 50.2392C49.1302 49.7844 50.7625 49.2074 52.4072 48.6852C53.0478 48.4817 53.6898 48.284 54.3303 48.08C55.9786 47.5548 57.1743 49.4294 56.8134 50.8318C56.7346 51.138 56.7959 51.4489 56.8898 51.7498C56.9132 51.8249 56.8635 51.9355 56.8948 52.0023C57.3795 53.0397 56.8825 54.0613 56.8457 55.0872C56.8017 56.3163 56.6892 57.5428 56.5894 58.7688C56.5575 59.1616 56.4661 59.5481 56.4116 59.9392C56.2813 60.8737 56.1304 61.806 56.0363 62.7451C55.8863 64.2402 55.7739 65.7399 55.6487 67.2382C55.5213 68.7621 55.3701 70.2846 55.2798 71.8112C55.1931 73.274 54.9452 74.6963 54.6146 76.1123C54.2877 77.5126 54.0004 78.9258 53.7454 80.344C53.6467 80.8927 53.6465 81.473 53.6701 82.0355C53.695 82.625 54.161 83.0284 54.704 83.0392C56.2226 83.0692 57.7413 83.097 59.2594 83.144C59.8933 83.1636 60.5395 83.158 61.1544 83.2998C61.5442 83.3896 61.9116 83.6933 62.242 83.9695C62.4957 84.1814 62.4488 84.9269 62.0902 85.2246C61.5503 85.673 60.9376 86.0267 60.3269 86.3554C59.9736 86.5455 59.5637 86.6077 59.0915 86.7548C59.6217 87.3715 60.1777 87.3741 60.761 87.2764C61.483 87.1554 62.2021 87.1468 62.892 87.4514C63.4938 87.7171 63.6118 88.4254 63.0789 88.9625C62.7464 89.2977 62.3005 89.553 61.8654 89.6968C60.8914 90.0189 59.8984 90.2733 58.9071 90.529C58.5296 90.6265 57.9049 90.74 57.5194 90.7852C56.6136 90.8912 55.7073 91.0266 54.7984 91.0628C53.6469 91.1086 52.4919 91.0978 51.3397 91.0617C50.3707 91.0315 49.4041 90.9155 48.4353 90.8646C47.3458 90.8073 46.386 90.4044 45.7465 89.4245C45.4781 89.0134 45.3884 88.4144 45.3358 87.8866C45.1574 86.0966 45.46 84.3768 45.9468 82.6613C46.3365 81.2877 46.5464 79.8524 46.8398 78.4452C47.0922 77.235 47.3787 76.0322 47.5961 74.8144C47.7882 73.7384 47.9052 72.6461 48.0501 71.5601C48.1001 71.1859 48.1389 70.81 48.1665 70.433C48.2392 69.4405 48.3299 68.4482 48.3599 67.4539C48.3905 66.4415 48.4002 65.4236 48.3396 64.4139C48.2774 63.3743 47.8064 63.0353 46.8911 62.7298C45.4464 62.2476 44.0858 62.7284 42.6945 62.933C42.0474 63.0283 41.4039 63.1736 40.7542 63.2228C39.2705 63.3352 37.7783 63.342 36.3008 63.5109C35.4386 63.6093 34.5976 63.9358 33.7478 64.1629C31.8792 64.6623 29.9733 64.7614 28.063 64.7882C27.755 64.7925 27.4462 64.6633 27.1366 64.6026C26.3353 64.4454 25.5345 64.2841 24.7312 64.1396C24.0571 64.0182 23.3823 63.8877 22.703 63.8173C22.0527 63.7497 21.395 63.7729 20.743 63.7204C20.296 63.6846 19.8525 63.5916 19.4085 63.5164C18.9041 63.4311 18.2019 63.8041 17.9172 64.2903C17.2082 65.5013 16.9259 66.8821 16.6027 68.2468C16.3711 69.2248 16.0652 70.1925 15.9394 71.1874C15.7854 72.4035 15.7914 73.6439 15.7142 74.8726C15.6915 75.2347 15.6198 75.593 15.5734 75.9535C15.4479 76.9293 15.2657 77.9017 15.2156 78.8824C15.1658 79.8563 15.2498 80.8384 15.2743 81.8171C15.2778 81.9561 15.2817 82.0956 15.2767 82.2345C15.2351 83.3735 15.1578 84.5125 15.158 85.6515C15.1581 86.822 15.2459 87.9922 15.2698 89.1632C15.2801 89.6637 15.2316 90.1662 15.1985 90.667C15.1729 91.053 15.1402 91.4393 15.0918 91.8225C14.9893 92.6336 14.5453 93.1826 13.8967 93.5013C12.9109 93.9858 11.8984 94.3893 10.7862 94.3108C10.1688 94.2674 9.55098 94.2148 8.9327 94.2039C7.99492 94.1872 7.05651 94.2165 6.11873 94.2003C5.44955 94.189 4.77052 94.0391 4.11487 94.1257C3.36101 94.2254 2.72929 94.0075 2.10586 93.6175C1.69395 93.3597 1.36166 92.4701 1.46006 91.8868C1.57935 91.1787 1.91044 90.7965 2.51823 90.6552C2.89967 90.5665 3.28838 90.5 3.6574 90.3679C3.96226 90.2588 4.00138 90.0771 3.7107 89.8229C3.32088 89.482 2.88826 89.3474 2.40676 89.327C1.6586 89.2949 0.833588 88.3064 0.875561 87.5035C0.908238 86.8765 1.34969 86.6073 1.73914 86.2886C2.29428 85.8344 2.91099 85.7177 3.59812 85.7315C4.28047 85.7452 4.96907 85.6369 5.64773 85.5281C6.03276 85.4664 6.31249 85.2945 6.37923 84.7301C6.53009 83.4539 6.81682 82.198 6.99925 80.9251C7.07584 80.3904 7.0126 79.8331 7.0404 79.2879C7.08734 78.364 7.19181 77.4422 7.20617 76.5183C7.22283 75.456 7.16181 74.3925 7.14818 73.3291C7.14506 73.0897 7.20986 72.85 7.22403 72.609C7.2904 71.4775 7.37029 70.3463 7.40619 69.2135C7.43878 68.1881 7.40297 67.16 7.43289 66.1343C7.44642 65.6713 7.56083 65.2132 7.60382 64.7498C7.70442 63.6658 7.73774 62.5709 7.89478 61.4975C8.06525 60.3318 8.30033 59.1717 8.59157 58.0354C8.8088 57.1879 9.10805 56.3533 9.46657 55.5661C9.81368 54.8036 10.4455 54.2512 11.176 54.0529C12.1249 53.7954 13.1154 53.6894 14.0941 53.6081C15.8622 53.4612 17.6366 53.4081 19.4045 53.2608C20.2433 53.1909 21.0765 53.013 21.9065 52.849C22.6248 52.7071 23.3342 52.5115 24.0489 52.3475L24.3758 52.1493C25.229 51.7058 25.7632 51.6043 25.7578 49.9943L25.8338 49.4848C25.8599 48.5117 25.8533 47.5329 25.7867 46.5629C25.7299 45.7338 25.054 45.5137 24.3758 45.9092C23.6919 46.308 22.9486 46.6398 22.1956 46.8237C21.2518 47.0542 20.274 47.137 19.3064 47.2223C18.4512 47.2975 17.584 47.2292 16.7326 47.3306C15.3625 47.4938 14.1034 47.1676 12.8956 46.4927C12.873 46.4802 12.8483 46.4717 12.8232 46.4677C11.1747 46.2048 10.6368 44.8682 10.3929 43.3264C10.2434 42.3815 10.1867 41.409 10.1858 40.4488C10.1852 39.7677 10.3359 39.0841 10.4393 38.4053C10.6885 36.7703 10.9529 35.138 11.2048 33.5033C11.3747 32.4009 11.4928 31.2985 11.8783 30.2357C12.2169 29.3021 12.3774 28.2898 12.6141 27.3115C12.6343 27.2285 12.6152 27.1272 12.6506 27.0561C13.4019 25.5458 13.4376 23.8036 13.9454 22.2141C14.1927 21.4403 14.4451 20.6623 14.6128 19.8652C14.8095 18.9299 14.9168 17.9718 15.0625 17.0235C15.073 16.9549 15.0777 16.8853 15.0869 16.8165C15.2357 15.7087 15.3965 14.6028 15.5302 13.4928C15.6496 12.5021 15.6995 11.4993 15.8546 10.5162C15.9762 9.74523 16.1591 8.9739 16.4127 8.24406C16.6343 7.60661 17.2595 7.35133 17.8283 7.57304C17.9686 7.62781 18.128 7.81595 18.1618 7.97326C18.2698 8.4753 18.3356 8.99003 18.3934 9.50313C18.4452 9.96258 18.4969 10.4125 18.8886 10.834C19.1249 9.96085 19.3392 9.18446 19.5442 8.40502C19.6483 8.00937 19.708 7.59728 19.8358 7.21198C20.1374 6.30353 20.4612 5.4037 20.789 4.5062C21.0023 3.922 21.448 3.8504 21.9522 3.88417C22.4396 3.91683 22.6364 4.30265 22.7352 4.71027C22.9952 5.78221 23.141 6.86277 22.9429 7.98837C22.6784 9.49116 22.5222 11.0174 22.2509 12.5185C22.038 13.6968 21.6795 14.8429 21.4622 16.0203C21.2694 17.0657 21.1814 18.1346 21.0483 19.1932C21.0376 19.2782 21.0452 19.3665 21.0299 19.4501C20.7997 20.6996 20.5393 21.9431 20.3427 23.1988C20.1175 24.6366 19.934 26.0828 19.7591 27.5294C19.5832 28.9843 19.4134 30.4413 19.2905 31.9026C19.1814 33.1979 19.1199 34.4993 19.076 35.7997C19.0438 36.7568 19.3603 37.1438 20.1943 37.0686C21.1096 36.9859 22.0164 36.7815 22.925 36.6173C24.1561 36.3947 25.3873 36.1712 26.6148 35.9261C27.3839 35.7725 28.1569 35.62 28.9093 35.3916C29.7074 35.1494 30.312 34.5319 30.5643 33.7006C30.7402 33.1213 30.6933 32.417 30.6053 31.7925C30.4537 30.7167 30.306 29.6521 30.3388 28.5561C30.3738 27.3927 30.2911 26.2234 30.3575 25.0635C30.4199 23.975 30.5875 22.9062 30.9844 21.8686C31.5193 20.4705 32.3709 19.4068 33.4594 18.5422C33.6792 18.3675 33.9688 18.2647 34.2399 18.2087C36.8517 17.6686 38.3651 19.4025 38.6878 21.9707C38.886 23.5486 38.6476 25.0087 38.0853 26.469C37.7578 27.3197 37.672 28.2802 37.441 29.18C37.2909 29.7643 37.0346 30.3165 36.8974 30.9035C36.6394 32.0066 36.7071 33.0815 37.2353 34.101C37.5452 34.699 38.1066 34.7831 38.5777 34.7567C39.6967 34.694 40.8067 34.4578 41.9238 34.3266C43.4181 34.1508 44.7742 33.4514 46.191 32.986C47.1291 32.6779 48.0397 32.2625 48.9521 31.8657C49.5303 31.6141 50.0908 31.3123 50.6561 31.0258C51.3177 30.6905 51.6517 30.061 52.0099 29.3884C52.5677 28.341 52.8506 27.2073 53.1218 26.0629C53.3063 25.2846 53.4597 24.4874 53.5306 23.6884C53.6682 22.1361 53.7443 20.577 53.8337 19.02C53.9095 17.7011 54.0102 16.3815 54.0217 15.0613C54.0318 13.89 53.9299 12.7176 53.8879 11.5453C53.8786 11.2865 53.9306 11.0253 53.9253 10.7658C53.907 9.86724 53.8186 8.96559 53.8621 8.07134C53.9405 6.46499 54.0964 4.86332 54.2155 3.2592C54.2397 2.93272 54.2608 2.60533 54.2545 2.27783C54.2371 1.36482 54.8104 0.594102 55.6225 0.433549C56.0802 0.343079 56.5371 0.25332 56.9136 0.657492C57.0752 0.830926 57.26 1.02272 57.331 1.24595C57.5794 2.02569 57.7807 2.8098 57.7476 3.66693C57.7126 4.57933 57.7941 5.49731 57.8308 6.41256C57.8346 6.5084 57.8787 6.60232 58.0168 6.73742C58.2055 6.28142 58.3676 5.80899 58.589 5.37327C58.922 4.71828 59.2208 4.01339 59.6705 3.4655C60.4386 2.52967 61.1291 2.84489 61.499 3.95852C61.7735 4.78461 61.8132 5.69276 61.7004 6.60536C61.5577 7.75915 61.513 8.92775 61.4282 10.0901C61.3905 10.6087 61.3636 11.1284 61.3218 11.6467C61.2344 12.733 61.1641 13.8217 61.0426 14.9035C60.9188 16.0074 60.7337 17.1029 60.5917 18.2045C60.507 18.8614 60.4498 19.5227 60.3869 20.1827C60.2229 21.9038 60.2587 23.6364 59.9461 25.3547C59.6708 26.8678 59.5721 28.4317 59.5156 29.9784C59.4433 31.9584 58.9087 33.7723 58.1874 35.5544C57.6836 36.7991 57.0231 37.9083 56.0864 38.7988C55.7555 39.1132 55.3805 39.3761 55.0084 39.6316C53.9563 40.3542 52.9083 41.0862 51.8309 41.7606C51.429 42.0124 50.9605 42.1681 50.5045 42.275C49.5096 42.5081 48.4645 42.5552 47.5107 42.9096C46.1443 43.4174 44.7414 43.653 43.3358 43.8878C42.3311 44.0556 41.3072 44.0831 40.2929 44.1846C40.0315 44.2108 39.7753 44.2963 39.5141 44.3257C38.7194 44.4153 38.3426 45.0907 38.0111 45.7327C37.8108 46.1206 37.5821 46.4666 37.5201 46.9326" fill="#231F20"/>
</svg>
