<svg width="56" height="90" viewBox="0 0 56 90" fill="none" xmlns="http://www.w3.org/2000/svg">
<path fill-rule="evenodd" clip-rule="evenodd" d="M15.4878 55.2627C15.759 55.1743 15.8984 55.3073 15.982 55.4931C16.0529 55.6501 16.1243 55.8251 16.1237 55.9919C16.1219 56.497 16.0813 57.0018 16.0631 57.507C16.04 58.1532 16.0254 58.7998 16.0038 59.4461C15.9933 59.7612 15.9853 60.0771 15.9577 60.3911C15.9348 60.6537 15.8596 60.9135 15.8537 61.1755C15.8458 61.5371 15.8807 61.8997 15.8981 62.2618C15.9215 62.75 15.9429 63.2384 15.9705 63.7262C15.9991 64.2321 16.052 64.7371 16.0612 65.2431C16.0701 65.7381 16.0508 66.2345 16.0183 66.7287C15.9916 67.1348 15.9184 67.5376 15.8817 67.9433C15.7935 68.9184 15.7252 69.8953 15.6274 70.8694C15.5805 71.336 15.4756 71.7968 15.4143 72.2624C15.3788 72.5327 15.3925 72.809 15.3578 73.0795C15.2876 73.6281 15.1974 74.1742 15.1196 74.7218C15.0755 75.0329 15.0056 75.3451 15.0079 75.6566C15.0116 76.1535 15.0422 76.653 15.1071 77.1456C15.1475 77.4514 15.2208 77.7755 15.374 78.038C15.5256 78.2979 15.7212 78.5426 15.9627 78.7597C16.3967 79.15 16.8988 79.2523 17.4404 79.2517C17.8434 79.2512 18.2494 79.2158 18.6488 79.1598C19.0976 79.0968 19.5292 79.2626 19.989 79.1783C20.6704 79.0536 21.3689 79.0028 22.0627 78.9636C22.694 78.9277 23.3287 78.9537 23.9617 78.9436C24.2574 78.9389 24.5524 78.9055 24.848 78.8984C25.5452 78.8817 26.2426 78.8699 26.9399 78.8625C27.3169 78.8585 27.6942 78.8673 28.0712 78.8714C28.112 78.8719 28.1529 78.8853 28.1935 78.8836C28.4404 78.8728 28.6888 78.871 28.9341 78.8443C29.3674 78.797 29.8047 79.072 30.2348 78.8254C30.2609 78.8105 30.3015 78.8167 30.3351 78.8181C30.7307 78.8331 31.1262 78.8497 31.5218 78.8644C31.572 78.8663 31.6227 78.862 31.6729 78.8574C31.9525 78.8318 32.2315 78.7926 32.5117 78.7819C33.0573 78.7611 33.6093 78.7991 34.1482 78.7324C34.7104 78.6628 35.2583 78.7444 35.8114 78.7664C36.4573 78.7923 37.1016 78.8868 37.7468 78.8883C38.0557 78.8891 38.3634 78.94 38.694 78.8471C39.1253 78.7256 39.6016 78.755 40.0592 78.7281C40.2413 78.7174 40.429 78.7553 40.6067 78.7265C40.9223 78.6754 41.2294 78.5742 41.5449 78.5236C42.0417 78.4442 42.5426 78.3891 43.0419 78.3244C43.5679 78.2562 44.0923 78.1601 44.6206 78.13C45.0191 78.1074 45.4534 78.0851 45.8163 78.2136C46.3714 78.41 46.88 78.7343 47.4057 79.0091C47.7152 79.1708 48.0576 79.2981 48.319 79.5172C48.9353 80.0343 49.5021 80.6076 50.1073 81.1381C50.6609 81.6234 51.2443 82.0756 51.8031 82.5554C52.0626 82.7782 52.3154 83.015 52.5354 83.2749C52.8893 83.6931 53.301 83.7471 53.7373 83.3999C53.8219 83.3325 53.9153 83.2568 54.0166 83.2322C54.2858 83.1668 54.4431 82.9765 54.595 82.7776C54.6962 82.6451 54.7982 82.5101 54.8737 82.3633C54.9295 82.2545 54.9949 82.1111 54.9659 82.0074C54.8755 81.6828 54.7715 81.3552 54.6178 81.0561C54.4519 80.7336 54.229 80.4386 54.0223 80.1374C53.6296 79.5657 53.1942 79.0476 52.5681 78.6856C51.8842 78.2901 51.2418 77.825 50.5812 77.3904C50.4203 77.2845 50.2584 77.1798 50.0981 77.0729C49.7799 76.8607 49.4792 76.6161 49.1405 76.4431C48.8028 76.2707 48.477 76.1047 48.2207 75.8165C48.1075 75.6892 47.9507 75.5885 47.7959 75.5097C47.388 75.3017 46.9744 75.1037 46.5556 74.9177C46.1044 74.7172 45.7429 74.3429 45.2262 74.2688C44.6627 74.1879 44.1114 74.0223 43.5304 74.0651C43.3406 74.079 43.1468 74.0328 42.9547 74.0324C42.7389 74.032 42.5214 74.0405 42.3078 74.0676C42.1433 74.0884 41.9854 74.1557 41.8213 74.1821C41.4465 74.2427 41.0681 74.2823 40.6939 74.3458C40.0629 74.4532 39.4348 74.5767 38.804 74.6851C38.2819 74.7749 37.7557 74.8427 37.2348 74.9389C36.8294 75.0137 36.4314 75.1269 36.0266 75.2053C35.4101 75.3248 34.7907 75.4303 34.1721 75.5386C33.8978 75.5867 33.618 75.6779 33.3488 75.6557C33.1189 75.6368 32.9369 75.7045 32.738 75.766C32.3136 75.8974 31.8876 76.0239 31.4627 76.1539C31.1092 76.2618 30.7591 76.3811 30.4026 76.4784C30.0305 76.5802 29.6264 76.6072 29.2836 76.7654C28.8408 76.9699 28.3695 76.9847 27.9143 77.04C27.6285 77.0748 27.3291 77.104 27.0348 77.1226C26.439 77.1607 25.858 77.2935 25.2464 77.2619C24.6774 77.2326 24.0948 77.3108 23.5382 77.5164C23.213 77.6367 22.8529 77.6673 22.5071 77.7312C22.3676 77.757 22.2112 77.7329 22.0854 77.7848C21.5073 78.0234 20.9296 78.0093 20.344 77.8289C20.3045 77.8168 20.2648 77.7971 20.2248 77.796C19.8199 77.7853 19.4147 77.7797 19.0097 77.7671C18.9534 77.7652 18.8984 77.7309 18.8421 77.7134C18.4425 77.5899 18.2585 77.2489 18.0722 76.9316C17.952 76.727 17.8857 76.4822 17.8398 76.2469C17.7545 75.8092 17.6926 75.3663 17.6389 74.9235C17.6005 74.607 17.555 74.2845 17.5771 73.9692C17.6205 73.3512 17.7093 72.7363 17.7785 72.1202C17.8037 71.8974 17.7973 71.6665 17.8574 71.4534C17.9598 71.0902 17.9649 70.7247 17.9626 70.3553C17.96 69.9489 17.957 69.5425 17.9549 69.1361C17.9516 68.4573 17.9507 67.7784 17.9453 67.0995C17.9398 66.4233 17.9282 65.7472 17.9231 65.071C17.9211 64.802 17.9481 64.5317 17.9301 64.2642C17.8832 63.5632 17.7947 62.8668 17.9335 62.1625C18.0126 61.7611 18.0216 61.3463 18.0593 60.9374C18.0645 60.8803 18.0509 60.8217 18.0494 60.7639C18.0351 60.2401 18.0423 59.7228 18.2145 59.2132C18.3194 58.9029 18.3573 58.5701 18.4158 58.2459C18.4279 58.1781 18.4177 58.0922 18.3841 58.0329C18.2285 57.7575 18.0844 57.4712 17.8918 57.2222C17.667 56.9312 17.6332 56.6218 17.6716 56.2805C17.7186 55.8649 17.8393 55.4502 17.6371 55.0334C17.5774 54.9103 17.6396 54.7324 17.5869 54.603C17.4547 54.2786 17.2928 53.9656 17.1346 53.652C17.0615 53.5069 16.9694 53.3711 16.8864 53.2309C16.8218 53.122 16.8076 52.9682 16.617 52.982C16.4153 52.9968 16.2288 53.0299 16.1214 53.2236C16.0565 53.3403 15.9722 53.4529 15.9367 53.5781C15.7824 54.1248 15.6429 54.6753 15.4878 55.2627ZM8.63117 19.4045C8.60055 19.4015 8.56994 19.3986 8.53945 19.3954C8.52427 19.508 8.52414 19.6248 8.49163 19.7325C8.32641 20.2798 8.24671 20.8799 7.95752 21.3565C7.61595 21.9198 7.3432 22.5074 7.06337 23.0944C6.85615 23.5289 6.69346 23.9843 6.52331 24.4349C6.37466 24.8288 6.19844 25.2201 6.11583 25.6285C6.0083 26.1607 5.98097 26.7084 5.91974 27.2495C5.91228 27.3155 5.91139 27.3821 5.90229 27.4476C5.80336 28.16 5.70974 28.873 5.60133 29.5838C5.53162 30.0416 5.44585 30.4974 5.35565 30.9517C5.27506 31.3578 5.16918 31.7589 5.0915 32.1654C5.02167 32.5306 4.98018 32.9009 4.91692 33.2675C4.81167 33.878 4.67706 34.4846 4.5942 35.0979C4.45441 36.1337 4.37281 37.1774 4.21076 38.2093C4.14067 38.6557 4.01758 39.0914 4.02391 39.5504C4.02682 39.772 4.00303 40.0001 3.94965 40.2153C3.75382 41.0048 3.69625 41.8084 3.66134 42.6156C3.65666 42.7227 3.64578 42.8296 3.64173 42.937C3.62541 43.3703 3.62908 43.8052 3.58974 44.2365C3.55077 44.6644 3.4688 45.0885 3.40605 45.5143C3.37113 45.7514 3.29244 45.9918 3.30978 46.225C3.38302 47.2093 3.16442 48.1598 3.00565 49.118C2.95733 49.41 2.88016 49.7008 2.86675 49.9943C2.82993 50.7988 2.82196 51.6044 2.79869 52.4094C2.7873 52.8061 2.76289 53.2024 2.75264 53.599C2.74125 54.0467 2.72759 54.4947 2.73594 54.9424C2.74733 55.5559 2.78047 56.1692 2.80008 56.7827C2.80729 57.0064 2.79046 57.2312 2.80539 57.4541C2.83133 57.8412 2.87042 58.2275 2.90989 58.6136C2.95682 59.0726 2.80172 59.533 2.92178 59.9922C2.93304 60.0351 2.90546 60.088 2.89496 60.1361C2.87446 60.2297 2.83474 60.3234 2.83563 60.4167C2.83803 60.7046 2.87067 60.9928 2.8646 61.2805C2.85435 61.7632 2.82627 62.2455 2.80046 62.7278C2.77174 63.2667 2.72734 63.8049 2.70773 64.3441C2.68496 64.9749 2.71216 65.6087 2.6613 66.2369C2.61386 66.8211 2.61829 67.4005 2.64296 67.9837C2.65928 68.372 2.66687 68.7641 2.63119 69.1503C2.58578 69.6411 2.48621 70.1269 2.4222 70.6165C2.38336 70.9131 2.39399 71.2179 2.33441 71.5097C2.25559 71.8949 2.1244 72.2693 2.02548 72.6508C1.92769 73.028 1.82863 73.4057 1.75513 73.7877C1.68897 74.1321 1.67973 74.4876 1.6037 74.8292C1.50882 75.2546 1.48441 75.6702 1.57966 76.0981C1.62331 76.2938 1.62862 76.5014 1.6228 76.703C1.61914 76.8315 1.55525 76.9572 1.53248 77.0865C1.48934 77.3315 1.47466 77.5827 1.41483 77.8234C1.31893 78.2096 1.18648 78.5871 1.08869 78.9731C1.04214 79.1564 1.01911 79.351 1.02152 79.54C1.02771 80.0204 1.07237 80.5008 1.0682 80.9808C1.06187 81.6849 1.17687 82.3646 1.3641 83.0431C1.46821 83.4201 1.49718 83.8209 1.52463 84.2134C1.54905 84.5596 1.48377 84.9145 1.53058 85.2561C1.60851 85.8254 1.77461 86.3672 2.21966 86.7933C2.59881 87.1564 2.92039 87.5764 3.43046 87.7907C4.03403 88.0442 4.67947 88.1001 5.31377 88.2112C5.66154 88.2722 5.97553 88.4345 6.34721 88.4516C6.69662 88.4678 7.03313 88.6641 7.38507 88.733C7.8386 88.8216 8.30086 88.8708 8.76122 88.9216C9.51406 89.005 10.2683 89.0764 11.022 89.1516C11.1479 89.1642 11.2761 89.1601 11.4004 89.1802C11.7897 89.2429 12.1705 89.3498 12.5758 89.2675C12.8646 89.209 13.1632 89.1766 13.458 89.171C14.5369 89.1505 15.5856 88.945 16.6358 88.7264C17.128 88.624 17.6329 88.5697 18.1351 88.5268C18.7998 88.4699 19.4693 88.4654 20.1331 88.4017C20.8119 88.3363 21.4863 88.2266 22.1626 88.1364C22.5805 88.0806 22.9978 88.0219 23.4162 87.9703C23.7412 87.9305 24.07 87.9145 24.3924 87.8611C24.9284 87.7723 25.458 87.644 25.9954 87.5667C26.3826 87.5111 26.7797 87.5258 27.1694 87.4824C27.6008 87.4343 28.0296 87.3609 28.4576 87.2879C28.7392 87.2397 29.0614 87.2395 29.2866 87.0975C29.5982 86.9007 29.9437 86.88 30.27 86.7776C30.6272 86.6656 31.0057 86.6187 31.3746 86.5415C31.8194 86.4485 32.2627 86.3492 32.7084 86.2607C33.0224 86.1983 33.3403 86.1548 33.6545 86.0937C34.0987 86.0073 34.5394 85.9034 34.9846 85.8234C35.54 85.7236 36.1028 85.6604 36.6544 85.5446C37.255 85.4186 37.8437 85.238 38.4428 85.1043C38.8908 85.0043 39.3446 84.9007 39.8007 84.8701C40.5829 84.8175 41.3511 84.696 42.1171 84.544C42.4989 84.4682 42.8816 84.4198 43.2687 84.5267C43.6707 84.6378 44.0881 84.7069 44.4763 84.8522C44.8971 85.0096 45.3087 85.2063 45.6943 85.4347C46.363 85.8309 46.8507 86.4641 47.5555 86.8254C47.811 86.9563 48.0109 87.1885 48.2494 87.3564C48.5299 87.5539 48.8595 87.6957 49.1069 87.9252C49.8451 88.6104 50.7189 88.8094 51.6958 88.7225C51.8709 88.7069 52.0493 88.7318 52.2255 88.7248C52.4416 88.7162 52.6807 88.7466 52.868 88.6664C53.2917 88.4846 53.6848 88.2356 54.0998 88.0325C54.3804 87.895 54.5138 87.6967 54.4184 87.3997C54.3097 87.0612 54.2171 86.7063 54.039 86.4031C53.7085 85.8407 53.4044 85.2601 52.935 84.7802C52.7028 84.543 52.5514 84.2968 52.1367 84.3955C51.7912 84.4778 51.5091 84.1516 51.6475 83.8782C51.8164 83.5448 51.6752 83.4355 51.4687 83.2699C51.2671 83.108 51.0582 82.955 50.8578 82.7917C50.6836 82.6498 50.5165 82.4996 50.3473 82.352C49.9508 82.0061 49.5549 81.6598 49.1591 81.3135C48.8574 81.0495 48.5569 80.7842 48.2544 80.5214C48.0174 80.3152 47.7784 80.1113 47.5388 79.908C47.5016 79.8763 47.4594 79.8479 47.4147 79.8275C46.956 79.6179 46.4988 79.4048 46.0363 79.2036C45.5463 78.9905 45.0352 78.8484 44.4944 78.8748C44.2983 78.8843 44.107 78.9673 43.9104 78.9918C43.1651 79.0844 42.418 79.1638 41.6724 79.2548C41.4253 79.285 41.1823 79.3521 40.9347 79.3736C40.4655 79.4143 39.9905 79.4064 39.525 79.4685C38.4422 79.613 37.3583 79.6704 36.2683 79.5959C35.8331 79.5662 35.3997 79.5035 34.9642 79.4876C34.4108 79.4675 33.8553 79.4367 33.3056 79.5663C33.1041 79.6139 32.889 79.6171 32.6798 79.6199C31.8882 79.6301 31.0964 79.6345 30.3046 79.6358C29.4692 79.6371 28.6338 79.6299 27.7984 79.6314C27.2249 79.6324 26.6513 79.6351 26.0781 79.6493C24.9978 79.676 23.9178 79.711 22.8375 79.7439C22.3082 79.76 21.7778 79.765 21.2496 79.8007C20.5436 79.8484 19.8401 79.9331 19.1339 79.9792C18.4687 80.0226 17.8007 80.0703 17.1357 80.0516C16.661 80.0384 16.1955 79.9258 15.7523 79.7071C15.3707 79.5187 15.2198 79.1408 14.9173 78.8922C14.5822 78.6168 14.5981 78.1719 14.4661 77.7999C14.3285 77.4125 14.2195 77.0177 14.2368 76.5989C14.2523 76.2284 14.245 75.8569 14.2652 75.4867C14.2762 75.2874 14.3218 75.0897 14.3561 74.8918C14.3659 74.8355 14.4007 74.7828 14.407 74.7267C14.4358 74.4693 14.453 74.2107 14.4852 73.954C14.5289 73.6033 14.5895 73.2546 14.6301 72.9038C14.6948 72.3435 14.7435 71.7816 14.8091 71.2215C14.8608 70.7815 14.9436 70.3446 14.9837 69.9037C15.0217 69.4854 15.0061 69.0624 15.0431 68.644C15.1002 67.996 15.2 67.3513 15.2482 66.7029C15.3015 65.9881 15.3191 65.2705 15.3455 64.554C15.3492 64.4573 15.3181 64.3584 15.2951 64.2624C15.2527 64.0845 15.176 63.9097 15.1658 63.7307C15.1536 63.5154 15.2094 63.2973 15.2111 63.0802C15.2132 62.8071 15.1851 62.5339 15.1793 62.2605C15.1702 61.8308 15.1493 61.4002 15.1684 60.9714C15.1956 60.3605 15.2767 59.7516 15.2942 59.1407C15.3145 58.4235 15.2914 57.705 15.2873 56.9871C15.2858 56.7153 15.2884 56.4437 15.2814 56.1722C15.28 56.1227 15.2413 56.0743 15.2199 56.0253C15.1728 56.0555 15.1021 56.0752 15.0827 56.1176C14.9443 56.42 14.679 56.589 14.4115 56.7577C14.3905 56.7711 14.3741 56.7915 14.3557 56.8087C13.9981 57.1429 13.6931 57.0972 13.4879 56.6508C13.2136 56.0546 13.1094 55.4276 13.0984 54.7672C13.0832 53.8519 12.9924 52.9378 12.9291 52.0236C12.9046 51.6674 12.8417 51.3123 12.8408 50.9566C12.8389 50.2359 12.8668 49.5152 12.8846 48.7946C12.8862 48.7288 12.9055 48.6637 12.9152 48.598C12.9568 48.32 13.079 48.0246 13.0224 47.7674C12.9003 47.2127 12.9863 46.6797 13.0546 46.139C13.0698 46.0184 13.1252 45.9013 13.1305 45.7813C13.1437 45.4835 13.1392 45.1849 13.1406 44.8867C13.1424 44.4715 13.1577 44.0558 13.1399 43.6414C13.125 43.2914 13.0427 42.9428 13.0404 42.5934C13.0359 41.8751 13.0628 41.1565 13.0816 40.4382C13.0865 40.2484 13.1228 40.0587 13.1196 39.8695C13.1129 39.4483 13.0828 39.0278 13.0762 38.6067C13.0685 38.1105 13.0817 37.6139 13.0736 37.1176C13.0703 36.911 13.0303 36.7052 13.0162 36.4984C12.9607 35.6815 12.9473 34.8596 12.8418 34.049C12.7762 33.545 12.7003 33.0528 12.7795 32.5465C12.8048 32.3851 12.8222 32.2205 12.8215 32.0574C12.8196 31.6783 12.8041 31.2992 12.7949 30.9199C12.7907 30.7473 12.8201 30.5671 12.78 30.403C12.6259 29.7718 12.5429 29.1358 12.5695 28.4867C12.5715 28.4386 12.5552 28.3896 12.5471 28.3412C12.5003 28.0601 12.4302 27.7802 12.4142 27.4974C12.4035 27.3052 12.4889 27.1022 12.7181 27.0717C12.9458 27.0412 13.0917 27.2009 13.131 27.399C13.2 27.7478 13.2364 28.1032 13.2756 28.4571C13.3184 28.8421 13.2879 29.2463 13.3986 29.61C13.5748 30.1891 13.5867 30.7587 13.5256 31.3474C13.444 32.133 13.4239 32.9203 13.52 33.7078C13.5832 34.2261 13.6462 34.7448 13.6861 35.265C13.7146 35.6364 13.7054 36.0104 13.7117 36.3833C13.7246 37.1435 13.7365 37.9038 13.7496 38.664C13.7504 38.7052 13.7605 38.7461 13.7632 38.7874C13.7972 39.3138 13.8569 39.8404 13.8578 40.3669C13.8591 41.13 13.8051 41.8929 13.8 42.6561C13.7975 43.039 13.8818 43.4227 13.8732 43.8049C13.8554 44.6001 13.8086 45.395 13.7612 46.1892C13.7132 46.9925 13.6336 47.7942 13.5982 48.598C13.5686 49.2678 13.5776 49.9393 13.5795 50.6101C13.5813 51.1463 13.5796 51.6836 13.6123 52.2184C13.6712 53.1847 13.7422 54.1509 13.8352 55.1146C13.8659 55.4325 13.9777 55.7436 14.0578 56.0566C14.0908 56.1858 14.1772 56.2306 14.2744 56.1207C14.4057 55.9725 14.5747 55.8244 14.6279 55.6472C14.7866 55.1177 15.0381 54.6226 15.1231 54.0617C15.2241 53.3951 15.5517 52.8148 16.1256 52.3953C16.3559 52.2268 16.9143 52.1948 17.12 52.3767C17.4005 52.6249 17.6483 52.8975 17.82 53.2368C18.0977 53.7849 18.3582 54.3389 18.4252 54.9543C18.4627 55.2972 18.4718 55.6454 18.4624 55.9905C18.4539 56.3038 18.3734 56.6203 18.5861 56.9014C18.7846 57.1638 18.984 57.4258 19.1882 57.6839C19.2051 57.7055 19.2845 57.7143 19.2963 57.6994C19.4144 57.5528 19.5758 57.4151 19.628 57.2461C19.9875 56.0813 19.9924 54.8777 19.9945 53.6753C19.9957 53.0714 19.991 52.4673 20.0009 51.8635C20.0092 51.3584 20.0591 50.853 20.0468 50.3486C20.0305 49.6775 19.9496 49.0075 19.9362 48.3364C19.9104 47.053 19.9002 45.7688 19.9073 44.4852C19.9126 43.5327 19.9632 42.5806 19.9786 41.6282C19.99 40.9318 19.9713 40.2351 19.9783 39.5387C19.9804 39.3346 20.0469 39.131 20.045 38.9274C20.0407 38.4777 20.0303 38.0264 19.9877 37.5789C19.9434 37.1163 19.8487 36.6583 19.7933 36.1963C19.7341 35.7034 19.6898 35.2082 19.6489 34.7132C19.6076 34.2113 19.5891 33.7074 19.5408 33.2064C19.4922 32.7034 19.4069 32.2038 19.3596 31.7008C19.2922 30.9839 19.2478 30.2652 19.1876 29.5476C19.1506 29.1085 19.1172 28.6684 19.0557 28.2323C18.9702 27.626 18.8413 27.0254 18.7655 26.4182C18.697 25.868 18.672 25.3124 18.6324 24.759C18.5828 24.0663 18.5569 23.3714 18.4835 22.6814C18.4443 22.3134 18.5498 21.9532 18.4434 21.5772C18.2452 20.8769 18.1277 20.1551 17.9463 19.4496C17.8314 19.003 17.7198 18.5396 17.503 18.1379C17.1663 17.5141 16.7367 16.9392 16.3549 16.3384C16.0339 15.833 15.6961 15.335 15.418 14.8071C15.1092 14.2211 14.9979 13.5685 14.8862 12.9211C14.7765 12.2859 14.6442 11.6545 14.5411 11.0184C14.4867 10.683 14.4958 10.3373 14.437 10.003C14.3094 9.27742 14.1511 8.55718 14.018 7.83246C13.9747 7.59723 13.9905 7.35143 13.9446 7.11707C13.829 6.52694 13.6868 5.94177 13.568 5.35214C13.4535 4.78437 13.1891 4.25798 12.8236 3.84691C12.2784 3.23354 11.6213 2.71213 10.9858 2.18164C10.6424 1.89508 10.2099 1.74286 9.76328 1.67812C9.498 1.63972 9.22183 1.64407 8.95326 1.6637C8.54552 1.69377 8.13488 1.72745 7.73525 1.80673C6.95558 1.96144 6.31445 2.39177 5.70708 2.87131C5.48608 3.04565 5.25621 3.21987 5.07784 3.43249C4.90554 3.63778 4.78194 3.88655 4.65872 4.12688C4.41899 4.59437 4.18002 5.06322 3.96774 5.54313C3.77646 5.97557 3.60871 6.41907 3.45336 6.86543C3.25614 7.43246 3.07827 8.00594 2.90002 8.57917C2.8417 8.76694 2.79818 8.96067 2.76592 9.15452C2.69432 9.58584 2.62183 10.0177 2.57199 10.4518C2.49912 11.085 2.43106 11.7193 2.38944 12.355C2.36186 12.7766 2.37792 13.2016 2.38589 13.6248C2.39323 14.0063 2.39032 14.3907 2.43814 14.7681C2.52075 15.4202 2.66472 16.0664 2.95505 16.6604C3.13886 17.0363 3.33267 17.4686 3.65324 17.7023C3.99848 17.9541 4.48857 18.0413 4.92995 18.1323C5.62511 18.2757 6.30179 18.0929 6.96659 17.9044C7.46971 17.7617 7.93285 17.8351 8.38182 18.0842C8.71517 18.2691 8.96287 18.4781 9.0513 18.8939C9.11936 19.2143 9.14884 19.5044 9.06408 19.8141C9.04826 19.8718 9.04358 19.9466 9.06787 19.998C9.16225 20.1983 9.04725 20.3397 8.92656 20.464C8.8876 20.5043 8.711 20.4948 8.70189 20.4706C8.6504 20.3319 8.61017 20.1828 8.60422 20.0357C8.59587 19.8259 8.62054 19.6149 8.63117 19.4045ZM8.97223 0.917969C9.63639 1.04708 10.2308 0.892122 10.7409 1.21148C11.1225 1.45032 11.4987 1.69885 11.8625 1.96266C12.1722 2.18709 12.4819 2.41884 12.7531 2.68514C13.0483 2.9748 13.2946 3.31181 13.5701 3.62148C14.0624 4.17508 14.2125 4.87196 14.3971 5.54945C14.483 5.86459 14.4802 6.20197 14.5397 6.5253C14.6328 7.03119 14.7552 7.53185 14.8446 8.03823C14.902 8.3638 14.9083 8.69808 14.963 9.0244C15.0184 9.35457 15.1125 9.67828 15.175 10.0076C15.2088 10.1858 15.245 10.3737 15.2224 10.5502C15.1663 10.9921 15.3006 11.3993 15.3961 11.8184C15.4841 12.2041 15.5243 12.6 15.5977 12.9892C15.7382 13.7344 15.9949 14.4349 16.3704 15.1033C16.5923 15.4985 16.8983 15.8207 17.1522 16.1844C17.455 16.6185 17.7024 17.0909 17.962 17.5532C18.124 17.8419 18.2925 18.1324 18.4067 18.4405C18.5468 18.8177 18.64 19.2126 18.7411 19.603C18.8971 20.2059 19.0933 20.8046 19.1786 21.4176C19.2676 22.0592 19.353 22.7112 19.2055 23.3682C19.1595 23.5733 19.2519 23.8086 19.2813 24.03C19.29 24.0958 19.3152 24.1634 19.3065 24.2266C19.1987 25.0147 19.4039 25.7809 19.4783 26.5555C19.5263 27.0551 19.6307 27.5494 19.7008 28.0473C19.7328 28.2745 19.7449 28.5046 19.7628 28.7336C19.8609 29.9996 19.9472 31.2667 20.0599 32.5315C20.1252 33.2635 20.2387 33.9912 20.3189 34.722C20.3738 35.2223 20.4063 35.7248 20.4535 36.2259C20.5002 36.7218 20.5812 37.2164 20.5944 37.713C20.6066 38.1665 20.5461 38.6217 20.5226 39.0764C20.5161 39.2004 20.5312 39.3254 20.5297 39.4499C20.5265 39.6901 20.5122 39.9302 20.5144 40.1703C20.517 40.4586 20.5447 40.747 20.539 41.0349C20.5295 41.5081 20.4983 41.9807 20.484 42.4538C20.4783 42.6403 20.5007 42.8275 20.4977 43.0141C20.4863 43.7261 20.4315 44.4399 20.4668 45.1495C20.4953 45.7217 20.4767 46.2829 20.4268 46.852C20.3934 47.2345 20.4903 47.6269 20.5155 48.0156C20.5542 48.6109 20.578 49.2069 20.6148 49.8022C20.633 50.0972 20.6702 50.3911 20.6907 50.686C20.6987 50.8012 20.6821 50.9179 20.6802 51.0339C20.6784 51.1496 20.6476 51.2781 20.6872 51.379C20.8626 51.8271 20.8089 52.2791 20.734 52.7301C20.6234 53.3967 20.6541 54.0636 20.6703 54.7342C20.6793 55.1116 20.599 55.4934 20.5365 55.8696C20.4429 56.4326 20.3572 56.9995 20.2147 57.5514C20.1248 57.8994 19.8655 58.1804 19.5385 58.3422C18.9892 58.6143 18.8504 59.0966 18.7813 59.6251C18.7245 60.06 18.6747 60.4961 18.6381 60.933C18.5809 61.6179 18.5374 62.304 18.4881 62.9897C18.487 63.0062 18.4842 63.0229 18.4852 63.0394C18.5445 64.0789 18.6073 65.1185 18.6615 66.1583C18.6723 66.3644 18.6784 66.5771 18.6395 66.778C18.5035 67.4816 18.5908 68.1826 18.6052 68.8878C18.6227 69.7313 18.547 70.5772 18.4972 71.4213C18.4713 71.8595 18.417 72.296 18.3701 72.7328C18.3169 73.227 18.2504 73.7197 18.2059 74.2147C18.193 74.3585 18.2145 74.5133 18.2568 74.6522C18.3692 75.0203 18.4647 75.3797 18.4162 75.7771C18.3513 76.3104 18.7582 76.9577 19.1993 77.0563C19.4984 77.1231 19.8102 77.1326 20.1133 77.1845C20.2403 77.2062 20.3569 77.2825 20.4834 77.3141C20.5967 77.3426 20.7194 77.3648 20.8339 77.3526C21.1517 77.3182 21.4685 77.2711 21.7836 77.2172C22.3533 77.1199 22.9222 77.0177 23.4901 76.9102C23.9249 76.828 24.3538 76.6986 24.7919 76.6566C25.1626 76.6212 25.5425 76.6873 25.9187 76.6959C26.0757 76.6994 26.2369 76.6853 26.3902 76.6523C26.612 76.6046 26.8283 76.5324 27.0471 76.4706C27.0713 76.4636 27.0964 76.4481 27.1197 76.4503C27.8103 76.5169 28.4594 76.2972 29.1196 76.1632C29.3397 76.1186 29.5451 76.0071 29.763 75.9469C30.0446 75.8691 30.3338 75.8187 30.6166 75.7448C30.9513 75.6573 31.2796 75.5452 31.6161 75.4654C32.2599 75.3129 32.9047 75.1625 33.5545 75.0382C33.8808 74.9757 34.2208 74.9861 34.5508 74.9385C34.799 74.9029 35.0409 74.8262 35.2862 74.7699C35.7404 74.6656 36.195 74.5642 36.6491 74.4595C37.124 74.3498 37.595 74.2208 38.0734 74.1293C38.9975 73.9529 39.9233 73.7829 40.8529 73.637C41.5673 73.525 42.2867 73.4332 43.0074 73.3737C43.3494 73.3455 43.6997 73.4139 44.0462 73.4388C44.0712 73.4404 44.0977 73.449 44.1212 73.444C44.8008 73.2984 45.4226 73.521 46.0312 73.7609C46.3213 73.8752 46.5738 74.0789 46.8514 74.228C47.1743 74.4016 47.5115 74.5499 47.8323 74.727C48.1832 74.9208 48.5281 75.1269 48.866 75.3423C49.3093 75.6248 49.6617 76.0219 50.1767 76.2258C50.481 76.3465 50.7107 76.648 50.9752 76.8666C51.0325 76.9138 51.0892 76.9757 51.1566 76.9946C51.7072 77.1492 52.1172 77.5295 52.5707 77.8379C52.8355 78.0179 53.0755 78.2342 53.3457 78.4052C53.8514 78.7253 54.2219 79.1632 54.5689 79.6352C54.8563 80.0264 55.1146 80.4181 55.2486 80.8939C55.3502 81.255 55.5513 81.5881 55.6812 81.9431C55.764 82.1699 55.6848 82.3581 55.5001 82.5448C55.1969 82.8516 54.9431 83.2053 54.6611 83.5331C54.6073 83.5956 54.5198 83.6304 54.4475 83.6771C54.3539 83.7376 54.2639 83.8051 54.165 83.8555C53.9793 83.9502 53.7821 84.0248 53.6035 84.1304C53.5566 84.1581 53.5572 84.2686 53.5435 84.3424C53.54 84.3615 53.5638 84.3868 53.5776 84.4076C53.8774 84.8669 54.186 85.3209 54.4752 85.7864C54.7995 86.3083 55.0166 86.8718 55.0877 87.4838C55.1239 87.7946 54.9033 88.1861 54.6315 88.3394C54.1894 88.5889 53.7648 88.8704 53.3122 89.0992C53.1099 89.2013 52.8599 89.2285 52.6275 89.2527C52.3691 89.2798 52.106 89.2667 51.8448 89.2674C51.4347 89.2685 51.0238 89.2507 50.6147 89.2703C50.0737 89.2961 49.6326 89.0708 49.2049 88.7902C48.7319 88.4799 48.2509 88.1806 47.7849 87.8606C47.531 87.6863 47.3012 87.4777 47.0595 87.2861C46.655 86.9656 46.2627 86.6281 45.8408 86.3315C45.3972 86.0194 44.9353 85.7278 44.46 85.4651C44.2459 85.3468 43.9824 85.3066 43.7361 85.2558C43.5136 85.2102 43.2785 85.22 43.0583 85.1674C42.6087 85.0599 42.1693 85.1322 41.7243 85.1873C40.9564 85.282 40.1843 85.3451 39.4184 85.452C38.9022 85.5242 38.3902 85.6351 37.8823 85.7539C37.4089 85.8649 36.9471 86.0241 36.4732 86.1329C36.1988 86.1959 35.9095 86.1932 35.629 86.2346C35.2819 86.2859 34.9362 86.3478 34.5914 86.4133C33.8229 86.5589 33.0532 86.7006 32.2877 86.8606C31.5612 87.0125 30.8348 87.1693 30.1165 87.354C29.3489 87.5513 28.6006 87.8336 27.8248 87.9842C27.2625 88.0935 26.6691 88.048 26.0895 88.0732C26.0246 88.0761 25.9596 88.0866 25.8958 88.0997C25.7152 88.1368 25.5352 88.1775 25.3548 88.2161C25.0699 88.2771 24.785 88.3372 24.5002 88.3985C24.4272 88.4142 24.3535 88.453 24.2826 88.4476C23.455 88.3849 22.6709 88.6508 21.8648 88.7445C20.9044 88.8561 19.9371 88.9094 18.9739 88.9974C18.4401 89.046 17.9078 89.1101 17.3757 89.1747C16.9741 89.2235 16.572 89.2739 16.1735 89.3428C15.8252 89.403 15.4851 89.5113 15.1358 89.5602C14.5769 89.6382 14.0138 89.6878 13.4518 89.7436C12.9916 89.7892 12.5309 89.8516 12.0696 89.8583C11.7532 89.863 11.4365 89.7763 11.1183 89.7463C10.7962 89.716 10.4705 89.7198 10.1498 89.6814C9.88409 89.6495 9.62577 89.5605 9.36023 89.5271C8.81815 89.4591 8.27252 89.4178 7.72993 89.3533C7.37116 89.3105 7.0139 89.2516 6.65778 89.1907C6.31963 89.1332 5.98249 89.0691 5.6475 88.9963C5.52896 88.9705 5.42181 88.8949 5.3034 88.8691C4.84367 88.7693 4.37952 88.6893 3.92118 88.5846C3.62149 88.5162 3.31534 88.4477 3.03551 88.3268C2.37868 88.043 1.94527 87.4854 1.55246 86.9432C1.26668 86.5487 1.10653 86.0542 1.09906 85.5187C1.08856 84.7594 0.989381 84.0011 0.917146 83.2433C0.90829 83.151 0.822139 83.0683 0.787855 82.9754C0.603661 82.475 0.603281 81.9513 0.581396 81.4288C0.562926 80.9873 0.499546 80.5471 0.492461 80.1057C0.486009 79.7101 0.489425 79.3067 0.560396 78.9194C0.652493 78.4168 0.864139 77.9337 0.93473 77.4299C1.00545 76.9257 0.988116 76.4057 0.968507 75.8941C0.94561 75.2947 0.940296 74.7191 1.1651 74.1322C1.36321 73.6149 1.41027 73.0413 1.52033 72.492C1.56777 72.2559 1.6061 72.0181 1.6481 71.7811C1.77119 71.0878 1.92819 70.3983 2.00637 69.7001C2.07443 69.0925 2.05912 68.4753 2.06975 67.8621C2.08253 67.1219 2.0595 66.3801 2.09632 65.6414C2.13958 64.7741 2.23421 63.9094 2.29873 63.0431C2.31644 62.8047 2.3029 62.564 2.30961 62.3244C2.3382 61.3004 2.38956 60.2766 2.39108 59.2527C2.39171 58.6591 2.31416 58.0655 2.26976 57.472C2.26217 57.3727 2.21726 57.269 2.23535 57.1758C2.36843 56.4878 2.20258 55.8051 2.20891 55.1203C2.21587 54.3794 2.23206 53.6385 2.25104 52.8978C2.269 52.1946 2.28861 51.4911 2.32137 50.7882C2.34377 50.3051 2.37274 49.821 2.42941 49.3408C2.50772 48.6765 2.61677 48.0156 2.70836 47.3528C2.731 47.1885 2.73252 47.0214 2.75125 46.8565C2.82652 46.1896 2.91621 45.5243 2.9787 44.8563C3.0388 44.2135 3.07194 43.5682 3.11634 42.924C3.11913 42.8826 3.11318 42.8405 3.11748 42.7994C3.20819 41.9311 3.28561 41.0612 3.39643 40.1952C3.46867 39.6306 3.60074 39.0738 3.68575 38.5106C3.79227 37.805 3.87172 37.0956 3.97419 36.3894C4.09905 35.5295 4.23315 34.6708 4.36813 33.8124C4.46858 33.1732 4.56953 32.534 4.68503 31.8974C4.7307 31.646 4.82546 31.4037 4.88112 31.1535C4.95285 30.8309 5.02407 30.5065 5.06683 30.1794C5.17866 29.3235 5.27746 28.4658 5.37639 27.6082C5.42535 27.1834 5.44623 26.7547 5.51214 26.3326C5.55743 26.0431 5.66103 25.7628 5.73289 25.477C5.75237 25.3995 5.73782 25.3131 5.76173 25.2377C5.92392 24.7242 6.07661 24.2068 6.26346 23.7018C6.42387 23.2681 6.60478 22.8391 6.81465 22.4266C7.0645 21.9357 7.35889 21.4668 7.62493 20.9835C7.68287 20.8784 7.70615 20.7539 7.73955 20.6367C7.82393 20.3408 7.92943 20.0478 7.97915 19.7462C8.01293 19.5411 7.96536 19.3234 7.9579 19.1112C7.95575 19.0503 7.94512 18.9757 7.97472 18.9303C8.09402 18.7481 8.01014 18.6324 7.84151 18.5858C7.64214 18.5307 7.42492 18.4726 7.22555 18.4965C6.83489 18.5433 6.4531 18.6558 6.06459 18.7238C5.46621 18.8284 4.86847 18.9055 4.27148 18.6891C4.06085 18.6129 3.79037 18.6472 3.61769 18.5305C3.35481 18.3528 3.03487 18.2601 2.84144 17.9559C2.57818 17.542 2.26824 17.1682 2.1917 16.6582C2.1535 16.4034 1.99208 16.1686 1.92832 15.9146C1.7655 15.2661 1.57511 14.623 1.67113 13.9346C1.71515 13.6179 1.65544 13.2879 1.65316 12.964C1.65051 12.5756 1.63672 12.1854 1.6686 11.7994C1.7006 11.412 1.7803 11.0283 1.84368 10.6437C1.92452 10.1535 1.98588 9.65864 2.09872 9.1755C2.27571 8.41761 2.45572 7.65761 2.69596 6.91773C2.91849 6.23291 3.20313 5.56536 3.49637 4.90551C3.67943 4.49369 3.93333 4.1127 4.14801 3.71393C4.41127 3.22495 4.78674 2.8063 5.17917 2.43686C5.56464 2.07413 6.08078 1.83828 6.55746 1.57844C6.83451 1.42758 7.13826 1.30642 7.44504 1.22963C7.98206 1.09554 8.53059 1.00595 8.97223 0.917969Z" fill="black"/>
</svg>
