<svg width="95" height="86" viewBox="0 0 95 86" fill="none" xmlns="http://www.w3.org/2000/svg">
<path fill-rule="evenodd" clip-rule="evenodd" d="M40.8182 16.111C41.0169 16.3097 41.2256 16.2531 41.4352 16.2373C41.5872 16.2258 41.7826 16.1996 41.8878 16.2762C42.1213 16.4462 42.3356 16.6761 42.3466 16.9857C42.3568 17.2755 42.3208 17.5701 42.2763 17.858C42.1965 18.3749 42.0488 18.8855 42.0147 19.4041C41.9761 19.9929 41.888 20.5713 41.7514 21.1384C41.5214 22.0919 41.4954 23.0645 41.406 24.0317C41.3435 24.708 41.2985 25.3863 41.2168 26.0601C41.15 26.6106 41.0447 27.1552 41.1393 27.7133C41.1616 27.8454 41.1483 27.9851 41.1391 28.1205C41.1144 28.4856 41.0806 28.8501 41.0549 29.2152C41.016 29.769 41.0004 30.3202 41.1159 30.871C41.2216 31.3743 41.2419 31.8847 41.1844 32.3997C41.1592 32.6261 41.1736 32.86 41.1961 33.088C41.2404 33.5361 41.288 33.9815 41.2396 34.4335C41.2006 34.7973 41.1729 35.1636 41.1663 35.5292C41.1455 36.679 41.1487 37.8294 41.1203 38.979C41.0933 40.0759 41.0395 41.1716 40.939 42.2657C40.8838 42.8674 40.9008 43.4764 40.9033 44.0821C40.9044 44.3741 40.9389 44.667 40.9726 44.9578C41.1176 46.2081 41.1088 47.4652 41.1067 48.7193C41.1048 49.7949 41.0199 50.8704 40.9684 51.9457C40.9314 52.7185 40.8829 53.4906 40.8507 54.2634C40.8299 54.7638 40.8317 55.265 40.8188 55.7657C40.8014 56.4452 40.7807 57.1245 40.7594 57.8038C40.7438 58.3051 40.7229 58.8062 40.7084 59.3076C40.7 59.6 40.706 59.8929 40.6943 60.1851C40.6619 60.9988 40.6509 61.8147 40.5802 62.6253C40.4996 63.5513 40.4103 64.4811 40.2396 65.3936C40.0403 66.4591 40.0054 67.5308 39.9569 68.6053C39.9302 69.199 40.007 69.7963 39.8953 70.387C39.8547 70.6023 39.8079 70.8168 39.778 71.0336C39.6951 71.634 39.646 72.2405 39.5341 72.8353C39.4127 73.4801 39.3796 74.1452 39.1247 74.7628C39.0973 74.8293 39.0948 74.9058 39.0787 74.9772C38.9528 75.534 39.0341 76.1042 38.97 76.6636C38.8988 77.2851 38.8244 77.9087 38.6979 78.5204C38.5945 79.0202 38.3767 79.4966 38.2744 79.9965C38.1572 80.5687 37.8742 81.0493 37.5642 81.5228C37.436 81.7187 37.2599 81.8621 37.0156 81.9113C36.7278 81.9692 36.441 82.034 36.1574 82.1096C35.6907 82.234 35.2118 82.3319 34.7666 82.5111C34.3527 82.6778 33.9397 82.8107 33.4985 82.8608C33.1748 82.8974 32.8487 82.9179 32.5273 82.9682C31.7475 83.0901 31.1572 83.4714 30.8696 84.2332C30.747 84.5578 30.8449 84.8334 31.1633 84.9599C31.4829 85.087 31.8182 85.2078 32.1566 85.2474C32.6447 85.3045 33.1418 85.2853 33.635 85.2999C33.9604 85.3095 34.2857 85.3214 34.611 85.3321C34.9673 85.3438 35.3236 85.3628 35.6799 85.3641C35.8892 85.3648 36.0989 85.32 36.3077 85.3249C37.0739 85.343 37.8401 85.3651 38.6056 85.4011C39.3578 85.4365 40.0673 85.2549 40.7537 84.9844C41.2514 84.7883 41.6735 84.4771 41.9087 83.9732C41.988 83.8031 42.0538 83.626 42.1154 83.4486C42.3524 82.767 42.5936 82.0882 42.716 81.3715C42.8144 80.7958 42.9593 80.228 43.0834 79.6567C43.1212 79.4833 43.1715 79.3115 43.194 79.1362C43.2643 78.5867 43.3292 78.0363 43.3869 77.4853C43.4695 76.6952 43.5341 75.9031 43.6247 75.1139C43.7092 74.3772 43.8238 73.644 43.9135 72.9078C43.9778 72.3798 44.0287 71.8498 44.0751 71.3198C44.116 70.8517 44.1098 70.3773 44.1834 69.915C44.2786 69.3175 44.4543 68.733 44.5552 68.1362C44.6666 67.4772 44.7269 66.8098 44.8208 66.1477C44.8662 65.8282 44.919 65.5073 45.002 65.1959C45.1176 64.7622 45.2972 64.344 45.3916 63.9068C45.5971 62.9549 45.7223 61.9876 45.7639 61.0157C45.7979 60.2207 45.7999 59.4269 46.0286 58.655C46.073 58.5049 46.1086 58.3507 46.1302 58.1959C46.3087 56.9108 46.4709 55.6244 46.4634 54.3231C46.4605 53.8114 46.4738 53.2995 46.4754 52.7878C46.4772 52.1289 46.4709 51.47 46.4767 50.8112C46.4783 50.6359 46.4916 50.456 46.5335 50.2865C46.6417 49.8481 46.7285 49.4108 46.7136 48.9547C46.6996 48.5267 46.7094 48.0977 46.7159 47.6693C46.7178 47.5449 46.7379 47.4196 46.7608 47.2967C46.8356 46.8942 46.8787 46.4923 46.8536 46.08C46.8226 45.5698 46.8021 45.0571 46.8164 44.5465C46.8315 44.0051 46.8996 43.4653 46.9306 42.9241C46.9437 42.6958 46.8882 42.4606 46.9212 42.2369C46.988 41.7849 46.9659 41.3406 46.8948 40.8942C46.8448 40.5796 46.8651 40.2722 46.9554 39.9631C47.0225 39.7333 47.0616 39.4931 47.0894 39.2548C47.1232 38.9647 47.1316 38.6715 47.152 38.3797C47.1578 38.2966 47.1579 38.2115 47.1771 38.1311C47.216 37.9679 47.3385 37.8795 47.4945 37.8881C47.6398 37.8961 47.7351 37.9765 47.7459 38.151C47.7925 38.9019 47.8322 39.6534 47.8676 40.405C47.908 41.2618 47.9229 42.122 48.1091 42.9634C48.3255 43.9413 48.3825 44.9285 48.3541 45.9259C48.3412 46.3748 48.3381 46.8267 48.3749 47.2735C48.4318 47.9635 48.4289 48.651 48.4153 49.3422C48.3967 50.2924 48.4217 51.2437 48.4367 52.1943C48.4466 52.8218 48.4854 53.4489 48.4859 54.0763C48.4863 54.5562 48.4749 55.0394 48.4199 55.5156C48.2882 56.6587 48.1495 57.8001 48.1743 58.9538C48.1875 59.5708 48.2026 60.1878 48.2153 60.8048C48.2263 61.3373 48.2636 61.8711 48.2388 62.4018C48.1986 63.2576 48.122 64.1118 48.0502 64.9658C48.0195 65.3299 47.9597 65.6917 47.9178 66.055C47.8508 66.6358 47.82 67.223 47.7118 67.7959C47.6375 68.189 47.5787 68.5783 47.5678 68.9761C47.5618 69.1955 47.5616 69.4152 47.5626 69.6347C47.5663 70.4288 47.5363 71.2251 47.5851 72.0165C47.6445 72.9799 47.692 73.9451 47.5663 74.899C47.4309 75.9255 47.4391 76.9644 47.2358 77.9853C47.122 78.5563 47.108 79.1473 47.0516 79.7295C47.0204 80.0515 46.9743 80.3737 46.9701 80.6963C46.9607 81.4178 46.9676 82.1397 46.9816 82.8613C46.9845 83.0119 47.0045 83.1938 47.0902 83.3054C47.3124 83.5946 47.5603 83.8686 47.9341 83.9832C48.5814 84.1817 49.2441 84.289 49.9195 84.2852C50.6855 84.2809 51.4513 84.2503 52.2171 84.2268C52.3422 84.2229 52.4676 84.2013 52.5912 84.1791C52.9304 84.1181 53.2684 84.0497 53.6078 83.9893C54.0313 83.9138 54.4673 83.8817 54.8769 83.7605C55.3372 83.6243 55.7772 83.4167 56.2202 83.2265C56.4889 83.1111 56.751 82.9782 57.0072 82.837C57.1697 82.7474 57.2296 82.5752 57.1463 82.4408C56.9275 82.0875 56.6549 81.7837 56.2482 81.64C56.0016 81.5529 55.7487 81.4822 55.4963 81.4125C55.1636 81.3203 54.8219 81.2556 54.4963 81.1437C54.1602 81.0282 53.8405 80.8661 53.5102 80.7329C53.3259 80.6586 53.1391 80.5768 52.9455 80.5423C52.5097 80.4647 52.1355 80.2593 51.7679 80.0339C51.4952 79.8668 51.324 79.6266 51.2575 79.3124C51.153 78.8185 51.134 78.315 51.1585 77.817C51.1953 77.0666 51.2842 76.3188 51.3492 75.5698C51.4258 74.6854 51.4978 73.8006 51.5772 72.9165C51.6193 72.4481 51.6809 71.9814 51.7191 71.5127C51.7684 70.9085 51.806 70.3031 51.8435 69.698C51.8875 68.989 51.932 68.28 51.9648 67.5704C51.985 67.1326 51.9701 66.6929 51.9961 66.2556C52.0208 65.8387 52.0941 65.4247 52.1176 65.0078C52.1559 64.3305 52.2332 63.6565 52.2234 62.9743C52.2168 62.5072 52.3092 62.0375 52.3718 61.5708C52.5239 60.4384 52.5977 59.3021 52.5141 58.1618C52.452 57.3149 52.4421 56.4705 52.5095 55.6243C52.5236 55.4472 52.5196 55.2687 52.5246 55.0908C52.5397 54.5478 52.5438 54.0043 52.574 53.4622C52.6003 52.9927 52.687 52.5253 52.6916 52.0565C52.6978 51.4303 52.6501 50.8037 52.6264 50.1771C52.6126 49.8117 52.5844 49.4458 52.5914 49.0807C52.6034 48.4548 52.6599 47.8292 52.6577 47.2037C52.6549 46.3781 52.6161 45.5535 52.6762 44.7274C52.7095 44.2699 52.7098 43.8075 52.6879 43.349C52.66 42.7647 52.5637 42.1827 52.5521 41.5986C52.5295 40.4596 52.5527 39.3197 52.5412 38.1803C52.5374 37.8022 52.5364 37.4281 52.619 37.0574C52.6713 36.8228 52.7197 36.5874 52.7707 36.3525C52.8807 35.8458 52.8931 35.3405 52.7967 34.8275C52.6442 34.016 52.5084 33.2014 52.3732 32.3869C52.3426 32.2021 52.3185 32.0102 52.3338 31.8251C52.3883 31.1696 52.4565 30.515 52.53 29.8612C52.5508 29.6755 52.6074 29.4936 52.6474 29.3099C52.7142 29.0036 52.8122 28.7001 52.8409 28.3903C52.9017 27.735 52.9217 27.0762 52.9669 26.4195C53.0515 25.1899 53.1415 23.9606 53.2306 22.7313C53.2555 22.3871 53.2714 22.0475 53.2231 21.6998C53.1702 21.319 53.1665 20.9287 53.1735 20.5432C53.182 20.0756 53.2716 19.611 53.2252 19.14C53.212 19.0063 53.2412 18.8691 53.2448 18.7333C53.2498 18.5459 53.2429 18.3579 53.2519 18.1708C53.2682 17.8269 53.2686 17.4799 53.3205 17.141C53.3666 16.8397 53.5788 16.7155 53.8863 16.7076C54.1765 16.7002 54.4675 16.6783 54.7558 16.6437C55.1826 16.5925 55.6073 16.5234 56.0331 16.4638C56.5615 16.3899 57.0897 16.3141 57.6188 16.246C58.0869 16.1858 58.5561 16.1344 59.025 16.081C59.0874 16.0739 59.1511 16.0757 59.214 16.0777C59.5499 16.0883 59.8857 16.1063 60.2216 16.1103C60.7042 16.116 61.1872 16.1232 61.6695 16.1085C62.1393 16.094 62.6079 16.043 63.0777 16.0262C63.5695 16.0086 64.0599 16.0089 64.5505 15.9391C65.1419 15.855 65.7408 15.8257 66.3343 15.7547C67.5219 15.6123 68.7084 15.4602 69.8947 15.3071C70.4702 15.2329 71.0446 15.2558 71.6212 15.2917C72.1548 15.3249 72.6899 15.3585 73.2241 15.3535C73.7485 15.3485 74.2734 15.2585 74.7963 15.2725C75.4435 15.2899 76.0981 15.2 76.7392 15.3649C76.7964 15.3796 76.8635 15.3573 76.9258 15.3507C77.061 15.336 77.1956 15.3129 77.3311 15.3066C77.7502 15.2871 78.1707 15.2872 78.5888 15.2551C79.2066 15.2078 79.8229 15.1406 80.4396 15.0791C80.6273 15.0603 80.815 15.0384 81.001 15.0079C81.4234 14.9389 81.8424 14.8287 82.2672 14.7998C82.7688 14.7656 83.2755 14.8128 83.7793 14.7988C84.0714 14.7905 84.3622 14.7332 84.6533 14.6948C85.2145 14.6209 85.7755 14.5457 86.3363 14.4691C86.7822 14.4083 87.2272 14.3398 87.6738 14.2851C87.7966 14.27 87.9243 14.3011 88.0493 14.2965C88.6861 14.2731 89.3227 14.2418 89.9596 14.2201C90.1585 14.2134 90.3599 14.2471 90.5567 14.2279C90.8086 14.2034 91.0531 14.1324 91.2489 13.9565C91.4928 13.7373 91.4649 13.571 91.1617 13.4448C90.7845 13.2879 90.4195 13.102 90.0086 13.0308C89.785 12.9921 89.623 12.842 89.606 12.6068C89.5881 12.3584 89.6001 12.1069 89.6158 11.8577C89.6198 11.7946 89.6829 11.7317 89.7271 11.6751C89.99 11.3383 90.3887 11.2385 90.7675 11.1464C91.202 11.0408 91.6526 10.9882 92.1071 11.049C92.2076 11.0625 92.3235 11.0524 92.4168 11.0149C92.7927 10.8636 93.1624 10.6973 93.5521 10.5287C93.4659 10.2915 93.3453 10.1144 93.1079 10.0614C92.9248 10.0206 92.7354 9.99502 92.548 9.98801C91.8034 9.96002 91.0558 9.98858 90.3205 9.81929C90.1735 9.78544 90.0079 9.81804 89.8527 9.83577C89.3109 9.89761 88.7709 10.0088 88.2283 10.0228C87.3867 10.0444 86.5468 10.0324 85.7277 10.269C85.5371 10.324 85.342 10.3698 85.1459 10.3996C84.3669 10.518 83.5865 10.6264 82.8071 10.7423C82.256 10.8241 81.7076 10.907 81.1456 10.8997C80.495 10.8913 79.8433 10.9145 79.1932 10.9455C78.8598 10.9614 78.5246 11.0035 78.1977 11.0701C77.5999 11.1919 77.0043 11.3214 76.3907 11.3198C75.6552 11.3179 74.9198 11.3031 74.1843 11.3044C73.9552 11.3048 73.7251 11.3312 73.4973 11.3598C72.9976 11.4224 72.5009 11.5177 71.9995 11.5555C71.508 11.5926 71.0122 11.571 70.5183 11.582C69.2173 11.6109 67.9164 11.6471 66.6153 11.673C66.0487 11.6843 65.4818 11.6846 64.9152 11.6767C64.5055 11.6711 64.0961 11.6294 63.6867 11.6299C63.1756 11.6304 62.6646 11.6697 62.1536 11.6702C61.5769 11.6709 61.0002 11.6388 60.4235 11.6367C60.0258 11.6352 59.628 11.6713 59.2303 11.6712C58.6433 11.6711 58.0563 11.6539 57.4693 11.6432C57.3542 11.6412 57.2386 11.6274 57.124 11.6337C56.5088 11.6673 55.8925 11.6919 55.279 11.7466C54.8207 11.7875 54.3624 11.8511 53.9106 11.9381C53.3742 12.0414 52.838 12.0749 52.339 11.8468C52.0587 11.7187 51.7897 11.6961 51.4988 11.6921C51.1793 11.6876 50.8837 11.5939 50.6021 11.4331C49.974 11.074 49.6739 10.4967 49.5807 9.82619C49.5243 9.42031 49.5917 8.99516 49.6242 8.58033C49.6396 8.38534 49.681 8.18545 49.751 8.00311C49.8933 7.63268 50.0623 7.27234 50.2216 6.90841C50.4814 6.31454 50.7427 5.72119 51.0024 5.12728C51.0191 5.08931 51.0328 5.04885 51.0398 5.00821C51.1568 4.32286 51.1316 3.64641 50.8254 3.01248C50.7154 2.7846 50.5471 2.5651 50.3546 2.40038C50.0133 2.1082 49.6376 1.85456 49.2682 1.59625C48.7122 1.20746 48.102 1.19589 47.5005 1.43882C46.9109 1.6769 46.4079 2.03365 46.0593 2.60129C45.7385 3.12362 45.4592 3.66328 45.2971 4.24603C45.1209 4.87973 45.0316 5.53669 45.0439 6.19947C45.0543 6.76209 45.1438 7.29953 45.5222 7.75762C45.6518 7.91448 45.7545 8.10804 45.8178 8.30155C46.0372 8.97202 46.0485 9.66175 45.8632 10.3359C45.6209 11.2178 45.3799 11.5117 44.5663 11.8312C44.3053 11.9336 44.0501 12.0576 43.8074 12.1979C43.4179 12.4231 43.003 12.5561 42.5568 12.583C42.3693 12.5943 42.1793 12.5558 41.9904 12.5553C40.6573 12.5517 39.3243 12.5482 37.9913 12.5532C37.5397 12.5549 37.0865 12.5612 36.6373 12.6018C36.1471 12.6461 35.6619 12.7448 35.1721 12.7961C34.8713 12.8276 34.5636 12.8408 34.2629 12.8159C33.699 12.7695 33.1379 12.6912 32.5761 12.6224C32.3785 12.5982 32.18 12.5268 31.9859 12.5391C31.0114 12.6004 30.0428 12.7094 29.093 12.9515C28.8711 13.008 28.6395 13.0468 28.4109 13.0548C27.1427 13.0989 25.8731 12.9978 24.6048 13.0876C24.134 13.1208 23.662 13.1371 23.1916 13.1743C23.0281 13.1872 22.8688 13.2458 22.7058 13.2726C22.4471 13.3149 22.1858 13.3418 21.9275 13.3863C21.5043 13.4594 21.0834 13.5451 20.6599 13.6166C20.559 13.6335 20.4436 13.6399 20.3497 13.608C20.1494 13.5399 19.9549 13.5644 19.7581 13.598C19.4793 13.6455 19.2035 13.7181 18.923 13.746C18.3493 13.8032 17.7734 13.8393 17.1981 13.8807C16.9998 13.895 16.8007 13.9018 16.6019 13.9079C16.109 13.9226 15.6157 13.9504 15.1229 13.9449C14.3056 13.9357 13.489 13.8603 12.6738 14.0011C12.0769 14.1042 11.4757 14.1824 10.8758 14.2677C10.4305 14.331 9.98414 14.3864 9.53861 14.4478C9.14446 14.502 8.7487 14.5481 8.35747 14.6189C7.93427 14.6954 7.51927 14.8251 7.09396 14.8795C6.54973 14.9489 6.03419 15.0958 5.51494 15.266C5.05348 15.4172 4.57506 15.5532 4.06497 15.448C3.86621 15.407 3.64149 15.433 3.43923 15.4769C2.74664 15.6271 2.0985 15.8863 1.53039 16.3209C1.39921 16.4213 1.24295 16.495 1.16797 16.6908C1.33002 16.8281 1.442 17.0477 1.67926 17.0692C1.95994 17.0946 2.24858 17.1019 2.52726 17.0663C3.21354 16.9787 3.8976 16.8702 4.57942 16.7526C4.81507 16.712 5.03715 16.7243 5.26468 16.7795C5.69915 16.8847 5.81698 17.0011 5.61323 17.5019C5.56139 17.6293 5.4509 17.7506 5.33668 17.8322C4.99723 18.0748 4.65709 18.3272 4.25687 18.4609C4.01291 18.5423 3.90957 18.7108 3.84501 18.93C3.78578 19.1312 3.83831 19.2361 4.05088 19.2566C4.25784 19.2765 4.47001 19.2681 4.67771 19.2488C5.11534 19.2082 5.55595 19.0914 5.98699 19.1222C6.33166 19.1468 6.64659 19.0709 6.97481 19.0406C7.24609 19.0157 7.51835 18.9977 7.78826 18.9622C8.22578 18.9047 8.6598 18.8131 9.09875 18.776C9.85114 18.7122 10.6011 18.6374 11.3458 18.5118C11.4894 18.4876 11.6365 18.48 11.7823 18.4736C12.0549 18.4616 12.3312 18.4803 12.5998 18.4426C13.0875 18.3742 13.5689 18.2618 14.0562 18.1898C14.605 18.1086 15.1568 18.0455 15.7086 17.9869C15.9682 17.9594 16.2342 17.983 16.4915 17.9446C17.4617 17.7999 18.4356 17.7478 19.4155 17.772C19.8145 17.7819 20.2151 17.7882 20.613 17.7651C21.4077 17.7189 22.1968 17.6501 22.9989 17.6806C23.7996 17.7111 24.6076 17.7017 25.4126 17.5948C26.2011 17.4901 27.001 17.4722 27.7952 17.4077C28.348 17.3628 28.9002 17.3084 29.4516 17.2489C29.9211 17.1981 30.3877 17.1073 30.8582 17.0816C31.5923 17.0416 32.3171 16.9309 33.0465 16.8562C33.537 16.8059 34.0307 16.7872 34.523 16.7534C34.8247 16.7328 35.1276 16.7214 35.4277 16.6861C35.8639 16.6348 36.2962 16.5426 36.7333 16.5105C37.2145 16.4751 37.7004 16.5059 38.1822 16.4756C38.8941 16.4309 39.6037 16.3504 40.3154 16.3019C40.4971 16.2895 40.6671 16.2866 40.8182 16.111Z" stroke="black"/>
</svg>
